<svg id="svg" version="1.1" xmlns="http://www.w3.org/2000/svg" xmlns:xlink="http://www.w3.org/1999/xlink" width="400" height="76.00767754318618" viewBox="0, 0, 400,76.00767754318618"><g id="svgg"><path id="path0" d="M83.366 20.982 C 82.933 21.058,82.471 21.286,82.200 21.558 L 81.750 22.007 81.705 35.506 C 81.656 50.532,81.601 49.781,82.775 50.271 C 83.874 50.730,97.705 50.530,98.618 50.042 C 99.004 49.835,99.426 49.667,99.555 49.667 C 100.736 49.667,104.182 47.074,105.684 45.053 C 107.798 42.212,109.336 35.966,108.502 33.610 C 108.400 33.320,108.215 32.511,108.092 31.811 C 107.968 31.111,107.739 30.248,107.583 29.894 C 106.970 28.501,106.095 26.833,105.979 26.833 C 105.911 26.833,105.814 26.701,105.763 26.540 C 105.314 25.127,101.904 22.649,98.782 21.468 L 97.417 20.951 90.750 20.903 C 87.083 20.877,83.761 20.912,83.366 20.982 M111.185 21.009 C 109.251 21.401,109.333 20.743,109.333 35.777 C 109.333 50.333,109.280 49.716,110.588 50.263 C 111.328 50.572,127.615 50.617,128.490 50.312 C 130.055 49.766,130.143 45.024,128.604 44.212 C 128.163 43.979,127.303 43.926,122.958 43.865 L 117.833 43.793 117.833 41.407 L 117.833 39.021 121.875 38.969 C 127.045 38.902,127.167 38.832,127.167 35.937 C 127.167 32.767,126.902 32.601,121.708 32.531 L 117.833 32.478 117.833 30.002 L 117.833 27.525 122.966 27.471 C 129.535 27.401,129.550 27.394,129.572 24.083 C 129.585 22.188,129.374 21.568,128.582 21.168 C 128.005 20.877,112.537 20.736,111.185 21.009 M132.389 20.984 C 130.582 21.291,130.667 20.560,130.667 35.786 C 130.667 50.222,130.636 49.772,131.667 50.287 C 132.345 50.626,149.012 50.589,149.673 50.247 C 151.334 49.388,151.266 45.008,149.578 44.171 C 149.184 43.976,148.037 43.913,143.958 43.862 L 138.833 43.798 138.833 41.399 L 138.833 39.000 142.672 39.000 C 147.986 39.000,148.000 38.991,148.000 35.803 C 148.000 32.587,147.857 32.500,142.589 32.500 L 138.833 32.500 138.833 30.011 L 138.833 27.522 143.958 27.469 C 150.009 27.407,150.100 27.383,150.602 25.717 C 151.137 23.939,150.780 22.005,149.780 21.265 C 149.291 20.903,134.294 20.661,132.389 20.984 M168.833 20.944 C 167.957 21.082,167.718 21.167,167.388 21.454 C 167.201 21.617,166.990 21.938,166.920 22.167 C 166.850 22.396,166.726 22.666,166.645 22.768 C 166.564 22.870,166.349 23.387,166.167 23.917 C 165.984 24.447,165.768 24.964,165.687 25.065 C 165.605 25.167,165.482 25.512,165.414 25.833 C 165.345 26.154,165.149 26.678,164.978 26.998 C 164.807 27.317,164.664 27.692,164.661 27.831 C 164.659 27.970,164.472 28.458,164.246 28.917 C 164.021 29.375,163.836 29.864,163.835 30.002 C 163.834 30.141,163.694 30.516,163.525 30.836 C 163.355 31.155,163.120 31.717,163.003 32.083 C 162.886 32.450,162.732 32.825,162.662 32.917 C 162.592 33.008,162.439 33.421,162.321 33.833 C 162.204 34.246,162.046 34.666,161.970 34.768 C 161.894 34.869,161.688 35.357,161.512 35.851 C 160.884 37.612,160.574 38.420,160.447 38.620 C 160.377 38.733,160.178 39.220,160.005 39.704 C 159.623 40.775,159.134 42.050,158.804 42.833 C 158.669 43.154,158.351 43.979,158.097 44.667 C 157.843 45.354,157.489 46.242,157.312 46.640 C 156.025 49.527,156.847 50.500,160.572 50.500 C 163.988 50.500,165.069 49.818,165.589 47.336 C 165.656 47.016,165.808 46.604,165.928 46.419 C 166.047 46.234,166.234 45.726,166.343 45.290 C 166.595 44.276,166.398 44.313,171.315 44.370 C 175.182 44.414,175.390 44.433,175.565 44.750 C 175.667 44.933,175.797 45.121,175.854 45.167 C 175.911 45.212,176.014 45.512,176.082 45.833 C 176.151 46.154,176.316 46.631,176.450 46.892 C 176.584 47.154,176.790 47.690,176.908 48.083 C 177.510 50.082,178.318 50.500,181.583 50.500 C 185.320 50.500,186.309 49.656,185.176 47.436 C 184.998 47.086,184.803 46.564,184.743 46.275 C 184.683 45.986,184.538 45.598,184.420 45.411 C 184.303 45.225,184.071 44.644,183.906 44.120 C 183.741 43.596,183.553 43.167,183.488 43.167 C 183.423 43.167,183.318 42.885,183.255 42.542 C 183.191 42.198,183.003 41.692,182.837 41.417 C 182.672 41.142,182.483 40.654,182.418 40.333 C 182.354 40.012,182.203 39.595,182.083 39.406 C 181.964 39.216,181.790 38.804,181.698 38.489 C 181.528 37.914,180.986 36.514,180.573 35.583 C 180.451 35.308,180.117 34.446,179.831 33.667 C 179.544 32.887,179.175 31.988,179.009 31.667 C 178.844 31.346,178.652 30.821,178.582 30.500 C 178.512 30.179,178.316 29.655,178.144 29.336 C 177.973 29.016,177.833 28.641,177.833 28.502 C 177.832 28.364,177.691 28.019,177.519 27.736 C 177.346 27.453,177.152 26.966,177.086 26.653 C 177.021 26.340,176.874 25.933,176.759 25.750 C 176.644 25.567,176.454 25.117,176.337 24.750 C 176.220 24.383,176.023 23.896,175.900 23.667 C 175.777 23.438,175.600 22.945,175.507 22.572 C 175.133 21.082,172.320 20.395,168.833 20.944 M195.083 20.990 C 193.864 21.086,193.264 21.260,191.085 22.146 C 187.644 23.546,184.842 26.880,183.431 31.253 C 182.851 33.050,182.783 38.360,183.318 39.964 C 183.493 40.488,183.717 41.220,183.816 41.591 C 184.543 44.332,187.505 47.741,190.348 49.110 C 193.333 50.548,192.644 50.411,197.176 50.469 C 200.663 50.513,201.378 50.480,202.009 50.245 C 202.417 50.093,203.125 49.835,203.583 49.672 C 207.344 48.332,209.131 45.928,207.829 43.963 C 206.190 41.487,204.095 40.963,201.847 42.464 C 201.278 42.845,200.536 43.204,200.198 43.264 C 199.860 43.324,199.203 43.469,198.737 43.586 C 196.109 44.250,191.660 41.469,191.667 39.168 C 191.669 38.835,191.127 37.333,191.006 37.333 C 190.815 37.333,191.131 34.732,191.395 34.130 C 191.544 33.790,191.667 33.357,191.667 33.169 C 191.667 32.982,191.905 32.406,192.196 31.890 C 194.090 28.534,198.292 27.618,202.167 29.717 C 204.511 30.987,205.831 30.688,207.378 28.539 C 209.059 26.205,208.933 25.319,206.659 23.480 C 203.829 21.191,200.798 20.540,195.083 20.990 M219.833 20.978 C 216.190 21.308,212.105 23.916,209.942 27.293 C 209.515 27.959,209.167 28.560,209.167 28.629 C 209.167 28.698,209.018 29.032,208.837 29.371 C 208.655 29.709,208.437 30.383,208.351 30.868 C 208.265 31.353,208.063 32.087,207.901 32.500 C 207.429 33.704,207.468 37.894,207.964 39.292 C 208.167 39.866,208.333 40.544,208.333 40.799 C 208.333 41.054,208.478 41.546,208.654 41.892 C 208.830 42.238,209.049 42.734,209.140 42.994 C 210.002 45.468,213.225 48.429,216.623 49.869 L 217.917 50.417 222.250 50.417 C 226.401 50.417,226.622 50.400,227.500 50.032 C 230.700 48.688,232.862 47.081,233.053 45.904 C 233.361 44.005,231.099 41.666,228.955 41.667 C 228.084 41.667,227.753 41.796,226.304 42.698 C 222.070 45.334,216.807 42.708,216.180 37.648 C 215.267 30.272,221.225 26.149,227.338 29.927 C 229.275 31.125,230.996 30.489,232.484 28.027 C 233.588 26.200,233.417 25.150,231.796 23.802 C 228.750 21.267,225.392 20.475,219.833 20.978 M235.779 20.995 C 235.428 21.063,234.978 21.281,234.779 21.480 L 234.417 21.842 234.367 35.130 C 234.311 49.996,234.298 49.715,235.053 50.176 C 235.682 50.559,252.235 50.689,253.052 50.317 C 253.588 50.073,254.000 49.163,254.000 48.225 L 254.000 47.462 254.458 47.764 C 255.897 48.714,257.158 49.405,257.982 49.694 C 260.362 50.530,260.343 50.527,263.874 50.471 L 267.250 50.417 268.836 49.640 C 270.423 48.863,271.727 47.803,272.689 46.506 L 273.117 45.928 273.420 46.567 C 273.950 47.683,276.755 49.667,277.805 49.667 C 277.919 49.667,278.329 49.835,278.715 50.042 C 279.384 50.399,279.594 50.417,283.250 50.417 L 287.083 50.417 288.583 49.667 C 291.355 48.280,293.797 45.201,293.853 43.022 C 293.864 42.598,293.924 42.025,293.986 41.750 L 294.099 41.250 294.318 41.891 C 295.484 45.313,298.549 48.228,302.713 49.875 L 304.083 50.417 308.250 50.417 L 312.417 50.417 313.833 49.857 C 316.442 48.826,317.585 48.065,319.417 46.137 C 320.837 44.642,321.628 43.365,322.493 41.167 C 323.331 39.040,323.371 32.642,322.561 30.531 C 319.798 23.342,314.487 20.283,305.943 20.958 C 299.647 21.456,294.076 26.656,293.488 32.583 C 293.350 33.973,293.066 35.656,292.950 35.772 C 292.923 35.800,292.479 35.392,291.964 34.867 C 290.804 33.685,288.454 32.445,286.058 31.751 C 285.522 31.596,285.008 31.408,284.917 31.334 C 284.825 31.260,284.443 31.117,284.067 31.017 C 281.684 30.380,281.371 28.748,283.481 27.961 C 284.554 27.561,285.465 27.756,287.705 28.863 C 290.315 30.154,292.050 29.344,293.158 26.316 C 293.655 24.958,293.608 24.454,292.913 23.684 C 292.412 23.130,290.518 21.833,290.209 21.833 C 290.154 21.833,289.654 21.653,289.096 21.433 C 287.868 20.948,284.638 20.732,282.197 20.971 C 279.260 21.259,276.610 23.039,275.081 25.750 L 274.423 26.917 274.364 29.801 L 274.306 32.686 274.884 33.905 C 275.793 35.818,277.739 37.521,279.750 38.164 C 280.117 38.281,280.506 38.448,280.616 38.534 C 280.725 38.621,281.283 38.801,281.855 38.935 C 282.427 39.068,282.975 39.241,283.073 39.319 C 283.170 39.398,283.512 39.515,283.833 39.580 C 286.401 40.104,287.109 42.426,284.971 43.314 C 283.637 43.868,281.990 43.666,280.473 42.761 C 277.599 41.047,275.635 41.048,274.530 42.764 C 274.017 43.560,273.900 43.386,274.247 42.343 C 274.617 41.230,274.517 39.659,273.964 37.873 C 273.075 35.001,270.650 33.055,266.333 31.747 C 263.294 30.826,262.333 30.245,262.333 29.328 C 262.333 27.518,264.995 27.323,268.062 28.908 C 270.691 30.267,272.893 28.928,273.729 25.460 C 274.703 21.420,263.086 19.173,258.288 22.474 C 254.779 24.888,253.185 30.124,254.933 33.500 C 255.051 33.729,255.281 34.213,255.442 34.574 C 255.721 35.200,257.558 37.167,257.863 37.167 C 257.942 37.167,258.299 37.351,258.656 37.577 C 259.013 37.802,259.518 38.038,259.778 38.100 C 260.038 38.163,260.512 38.344,260.833 38.503 C 261.154 38.662,261.679 38.845,262.000 38.909 C 262.554 39.019,263.674 39.407,265.036 39.960 C 266.020 40.360,266.817 41.319,266.595 41.835 C 265.674 43.979,262.875 44.252,260.157 42.463 C 257.783 40.902,255.719 41.140,254.587 43.106 C 253.799 44.474,253.717 44.536,253.105 44.210 C 252.660 43.974,251.828 43.923,247.458 43.864 L 242.333 43.795 242.333 41.398 L 242.333 39.000 246.172 39.000 C 251.423 39.000,251.680 38.858,251.654 35.975 C 251.624 32.686,251.489 32.599,246.322 32.531 L 242.333 32.478 242.333 30.000 L 242.333 27.522 247.466 27.469 C 254.034 27.402,254.000 27.420,254.000 24.047 C 253.999 21.920,253.738 21.334,252.667 21.055 C 251.820 20.835,236.881 20.782,235.779 20.995 M326.376 20.985 C 324.752 21.403,324.833 20.625,324.834 35.700 C 324.834 52.069,324.411 50.493,328.808 50.498 C 333.065 50.502,333.000 50.591,333.000 44.672 L 333.000 40.477 333.372 40.530 C 333.771 40.587,334.355 41.389,337.416 46.083 C 340.397 50.654,340.165 50.500,344.083 50.500 C 347.424 50.500,347.875 50.372,348.186 49.336 C 348.443 48.477,348.245 47.848,347.298 46.513 C 346.380 45.219,345.180 43.452,344.565 42.488 C 344.280 42.041,343.830 41.395,343.565 41.052 C 342.056 39.098,341.701 38.194,342.326 37.896 C 343.027 37.562,345.167 35.199,345.167 34.759 C 345.167 34.697,345.373 34.219,345.625 33.698 C 346.066 32.785,346.083 32.651,346.083 30.083 L 346.083 27.417 345.372 25.974 C 344.256 23.714,342.858 22.542,339.917 21.403 L 338.750 20.952 332.833 20.899 C 329.579 20.870,326.673 20.908,326.376 20.985 M350.833 20.977 C 348.872 21.407,349.000 20.384,349.000 35.634 C 349.000 49.537,348.998 49.492,349.799 50.083 C 350.488 50.592,355.657 50.672,356.439 50.186 C 357.549 49.497,357.500 50.156,357.500 35.778 C 357.500 21.670,357.522 22.000,356.558 21.340 C 355.952 20.924,352.171 20.685,350.833 20.977 M361.841 21.011 C 360.288 21.324,360.424 20.016,360.366 35.296 C 360.311 50.072,360.299 49.863,361.255 50.263 C 362.032 50.588,378.523 50.612,379.151 50.289 C 379.767 49.973,380.226 49.239,380.326 48.412 L 380.417 47.661 381.250 48.223 C 382.154 48.833,383.828 49.667,384.148 49.667 C 384.257 49.667,384.662 49.835,385.048 50.042 C 385.718 50.399,385.927 50.417,389.583 50.417 L 393.417 50.417 394.838 49.712 C 397.205 48.538,399.153 46.458,399.741 44.477 C 400.115 43.220,400.108 38.043,399.731 36.937 C 399.189 35.347,396.632 33.211,394.417 32.497 C 394.050 32.379,393.600 32.190,393.417 32.077 C 393.233 31.963,392.794 31.820,392.440 31.758 C 392.087 31.696,391.487 31.506,391.107 31.335 C 390.727 31.165,390.163 30.932,389.853 30.817 C 388.409 30.282,387.821 29.010,388.740 28.408 C 390.085 27.527,391.731 27.678,394.152 28.905 C 396.518 30.105,397.842 29.622,399.147 27.083 C 400.271 24.899,399.999 23.929,397.878 22.558 C 395.834 21.236,394.640 20.959,390.917 20.947 L 387.583 20.935 386.250 21.521 C 384.062 22.482,383.001 23.377,381.621 25.426 C 381.371 25.797,381.167 26.193,381.167 26.306 C 381.167 26.418,380.979 26.956,380.750 27.500 C 379.109 31.399,381.834 36.851,386.083 38.170 C 386.450 38.284,386.830 38.440,386.927 38.516 C 387.025 38.593,387.553 38.761,388.102 38.889 C 388.650 39.017,389.245 39.202,389.424 39.302 C 389.603 39.401,390.146 39.606,390.630 39.756 C 391.994 40.181,392.501 40.693,392.494 41.640 C 392.478 43.982,389.037 44.344,386.063 42.315 C 384.165 41.021,382.079 41.208,380.953 42.774 C 379.761 44.432,379.788 44.411,379.153 44.167 C 378.746 44.011,377.124 43.927,373.458 43.873 L 368.333 43.798 368.333 41.399 L 368.333 39.000 372.258 39.000 C 377.546 39.000,377.771 38.862,377.636 35.686 C 377.505 32.609,377.317 32.501,372.125 32.500 L 368.333 32.500 368.333 30.011 L 368.333 27.522 373.458 27.469 C 378.034 27.422,378.643 27.384,379.138 27.114 C 380.681 26.272,380.849 22.333,379.385 21.333 L 378.775 20.917 370.679 20.889 C 366.226 20.874,362.249 20.929,361.841 21.011 M95.990 27.905 C 97.645 28.618,98.497 29.431,99.333 31.093 L 100.083 32.583 100.077 35.750 C 100.072 38.370,100.025 38.989,99.803 39.333 C 99.655 39.563,99.479 39.938,99.411 40.167 C 98.673 42.656,96.439 43.893,92.542 43.969 L 89.833 44.022 89.833 35.761 L 89.833 27.500 92.458 27.507 C 94.836 27.513,95.169 27.550,95.990 27.905 M336.734 27.878 C 337.819 28.498,338.077 28.991,338.065 30.418 C 338.047 32.473,337.531 33.008,334.932 33.666 C 332.804 34.205,333.000 34.501,333.000 30.750 L 333.000 27.500 334.542 27.503 C 335.828 27.505,336.191 27.567,336.734 27.878 M309.733 28.771 C 311.777 29.181,313.504 30.326,314.103 31.667 C 315.548 34.903,315.277 38.656,313.451 40.675 C 310.712 43.705,305.200 43.571,302.818 40.416 C 302.460 39.941,302.167 39.466,302.167 39.359 C 302.167 39.253,302.017 38.886,301.833 38.544 C 301.404 37.743,301.338 33.766,301.741 33.026 C 301.873 32.782,302.110 32.295,302.268 31.942 C 302.950 30.411,304.492 29.274,306.500 28.821 C 308.127 28.454,308.153 28.454,309.733 28.771 M171.491 33.292 C 171.600 33.727,171.786 34.234,171.906 34.419 C 172.025 34.604,172.178 35.016,172.244 35.336 C 172.311 35.655,172.508 36.165,172.683 36.468 C 173.376 37.672,173.218 37.833,171.347 37.833 C 169.314 37.833,169.133 37.778,169.343 37.225 C 169.429 36.998,169.500 36.629,169.500 36.406 C 169.500 36.183,169.573 36.000,169.662 36.000 C 169.751 36.000,169.949 35.569,170.102 35.042 C 170.255 34.515,170.476 33.858,170.594 33.583 C 170.712 33.308,170.850 32.952,170.899 32.792 C 171.057 32.281,171.288 32.476,171.491 33.292 " stroke="none" fill="#fc8404" fill-rule="evenodd"></path><path id="path1" d="M8.142 20.945 C 7.991 20.985,7.823 21.183,7.769 21.384 C 7.587 22.065,7.654 52.166,7.839 52.511 C 8.022 52.852,67.258 53.035,67.793 52.695 C 67.958 52.590,67.993 49.306,67.959 36.830 L 67.917 21.098 67.500 20.982 C 67.055 20.859,8.606 20.822,8.142 20.945 M95.795 20.954 C 96.094 20.991,96.544 20.990,96.795 20.952 C 97.045 20.914,96.800 20.884,96.250 20.885 C 95.700 20.886,95.495 20.917,95.795 20.954 M194.961 20.954 C 195.261 20.991,195.711 20.990,195.961 20.952 C 196.212 20.914,195.967 20.884,195.417 20.885 C 194.867 20.886,194.662 20.917,194.961 20.954 M200.208 20.953 C 200.460 20.991,200.873 20.991,201.125 20.953 C 201.377 20.915,201.171 20.883,200.667 20.883 C 200.162 20.883,199.956 20.915,200.208 20.953 M219.628 20.954 C 219.928 20.991,220.378 20.990,220.628 20.952 C 220.878 20.914,220.633 20.884,220.083 20.885 C 219.533 20.886,219.328 20.917,219.628 20.954 M224.961 20.954 C 225.261 20.991,225.711 20.990,225.961 20.952 C 226.212 20.914,225.967 20.884,225.417 20.885 C 224.867 20.886,224.662 20.917,224.961 20.954 M262.044 20.953 C 262.297 20.991,262.672 20.990,262.877 20.951 C 263.082 20.911,262.875 20.880,262.417 20.881 C 261.958 20.882,261.791 20.915,262.044 20.953 M266.542 20.953 C 266.794 20.991,267.206 20.991,267.458 20.953 C 267.710 20.915,267.504 20.883,267.000 20.883 C 266.496 20.883,266.290 20.915,266.542 20.953 M281.708 20.953 C 281.960 20.991,282.373 20.991,282.625 20.953 C 282.877 20.915,282.671 20.883,282.167 20.883 C 281.662 20.883,281.456 20.915,281.708 20.953 M286.295 20.954 C 286.594 20.991,287.044 20.990,287.295 20.952 C 287.545 20.914,287.300 20.884,286.750 20.885 C 286.200 20.886,285.995 20.917,286.295 20.954 M305.042 20.953 C 305.294 20.991,305.706 20.991,305.958 20.953 C 306.210 20.915,306.004 20.883,305.500 20.883 C 304.996 20.883,304.790 20.915,305.042 20.953 M310.461 20.954 C 310.761 20.991,311.211 20.990,311.461 20.952 C 311.712 20.914,311.467 20.884,310.917 20.885 C 310.367 20.886,310.162 20.917,310.461 20.954 M337.128 20.954 C 337.428 20.991,337.878 20.990,338.128 20.952 C 338.378 20.914,338.133 20.884,337.583 20.885 C 337.033 20.886,336.828 20.917,337.128 20.954 M388.042 20.953 C 388.294 20.991,388.706 20.991,388.958 20.953 C 389.210 20.915,389.004 20.883,388.500 20.883 C 387.996 20.883,387.790 20.915,388.042 20.953 M392.628 20.954 C 392.928 20.991,393.378 20.990,393.628 20.952 C 393.878 20.914,393.633 20.884,393.083 20.885 C 392.533 20.886,392.328 20.917,392.628 20.954 M82.188 21.349 C 81.506 21.984,81.499 22.152,81.539 35.803 L 81.579 49.083 81.664 35.528 L 81.750 21.973 82.294 21.486 C 82.594 21.219,82.777 21.000,82.701 21.000 C 82.625 21.000,82.394 21.157,82.188 21.349 M98.407 21.337 C 98.860 21.514,99.257 21.632,99.289 21.600 C 99.368 21.521,98.045 20.998,97.788 21.008 C 97.676 21.012,97.954 21.160,98.407 21.337 M131.167 21.416 C 130.952 21.645,130.808 21.853,130.847 21.880 C 130.885 21.906,131.118 21.718,131.364 21.464 C 131.611 21.209,131.755 21.000,131.685 21.000 C 131.615 21.000,131.382 21.187,131.167 21.416 M149.898 21.349 C 151.329 22.474,151.124 26.241,149.583 27.131 C 149.400 27.237,149.334 27.325,149.436 27.328 C 150.572 27.359,151.435 24.191,150.793 22.345 C 150.595 21.774,149.910 21.001,149.603 21.000 C 149.521 21.000,149.655 21.157,149.898 21.349 M167.310 21.328 C 167.094 21.508,167.010 21.658,167.125 21.661 C 167.240 21.664,167.333 21.603,167.333 21.525 C 167.333 21.448,167.502 21.303,167.708 21.203 C 167.915 21.104,167.998 21.017,167.893 21.011 C 167.789 21.005,167.527 21.148,167.310 21.328 M227.477 21.337 C 227.876 21.518,228.251 21.664,228.310 21.660 C 228.520 21.646,227.245 21.014,227.000 21.011 C 226.862 21.009,227.077 21.156,227.477 21.337 M260.167 21.333 C 259.402 21.752,259.604 21.754,260.523 21.337 C 260.923 21.156,261.137 21.009,261.000 21.011 C 260.862 21.012,260.487 21.158,260.167 21.333 M279.241 21.641 C 278.513 21.993,277.809 22.411,277.678 22.569 C 277.547 22.728,277.815 22.624,278.274 22.339 C 278.733 22.053,279.552 21.637,280.096 21.414 C 280.639 21.191,280.967 21.006,280.825 21.004 C 280.682 21.002,279.970 21.288,279.241 21.641 M325.538 21.112 C 325.295 21.209,324.768 22.157,324.889 22.278 C 324.933 22.322,325.018 22.205,325.078 22.017 C 325.138 21.829,325.380 21.523,325.616 21.338 C 326.025 21.015,325.995 20.928,325.538 21.112 M339.477 21.257 C 339.786 21.390,340.086 21.497,340.144 21.494 C 340.361 21.482,339.407 21.012,339.167 21.012 C 339.029 21.013,339.169 21.123,339.477 21.257 M349.487 21.487 C 349.219 21.755,349.003 22.074,349.007 22.196 C 349.010 22.317,349.124 22.212,349.260 21.962 C 349.396 21.712,349.712 21.396,349.962 21.260 C 350.212 21.124,350.317 21.010,350.196 21.007 C 350.074 21.003,349.755 21.219,349.487 21.487 M356.608 21.369 C 356.894 21.572,357.209 21.929,357.308 22.161 L 357.487 22.583 357.397 22.167 C 357.300 21.722,356.612 21.000,356.285 21.000 C 356.177 21.000,356.322 21.166,356.608 21.369 M379.456 21.375 C 380.788 22.308,380.658 26.169,379.266 27.017 C 378.982 27.190,378.827 27.332,378.921 27.333 C 380.590 27.339,381.174 22.341,379.631 21.260 C 379.426 21.117,379.183 21.000,379.090 21.000 C 378.997 21.000,379.162 21.169,379.456 21.375 M386.333 21.333 C 385.569 21.752,385.771 21.754,386.690 21.337 C 387.090 21.156,387.304 21.009,387.167 21.011 C 387.029 21.012,386.654 21.158,386.333 21.333 M395.240 21.337 C 395.693 21.514,396.090 21.632,396.122 21.600 C 396.202 21.521,394.878 20.998,394.622 21.008 C 394.509 21.012,394.787 21.160,395.240 21.337 M109.885 21.458 C 109.703 21.619,109.507 21.975,109.450 22.250 L 109.347 22.750 109.551 22.307 C 109.663 22.063,109.896 21.707,110.070 21.515 C 110.453 21.092,110.342 21.057,109.885 21.458 M129.020 21.417 C 129.168 21.600,129.331 21.863,129.382 22.000 C 129.460 22.212,129.476 22.210,129.487 21.984 C 129.494 21.838,129.331 21.575,129.125 21.401 C 128.753 21.086,128.752 21.086,129.020 21.417 M175.014 21.603 C 175.236 21.889,175.450 22.093,175.491 22.056 C 175.532 22.020,175.351 21.786,175.089 21.537 L 174.612 21.083 175.014 21.603 M192.667 21.417 C 192.438 21.548,192.325 21.655,192.417 21.655 C 192.508 21.655,192.771 21.548,193.000 21.417 C 193.229 21.286,193.342 21.178,193.250 21.178 C 193.158 21.178,192.896 21.286,192.667 21.417 M203.167 21.500 C 203.487 21.676,203.825 21.819,203.917 21.819 C 204.008 21.819,203.821 21.676,203.500 21.500 C 203.179 21.324,202.842 21.181,202.750 21.181 C 202.658 21.181,202.846 21.324,203.167 21.500 M269.333 21.417 C 269.563 21.548,269.825 21.655,269.917 21.655 C 270.008 21.655,269.896 21.548,269.667 21.417 C 269.438 21.286,269.175 21.178,269.083 21.178 C 268.992 21.178,269.104 21.286,269.333 21.417 M313.333 21.417 C 313.563 21.548,313.825 21.655,313.917 21.655 C 314.008 21.655,313.896 21.548,313.667 21.417 C 313.438 21.286,313.175 21.178,313.083 21.178 C 312.992 21.178,313.104 21.286,313.333 21.417 M99.667 21.786 C 99.804 21.838,100.206 22.025,100.559 22.202 C 100.912 22.379,101.157 22.453,101.103 22.366 C 100.973 22.155,99.925 21.663,99.641 21.680 C 99.477 21.689,99.484 21.718,99.667 21.786 M314.333 21.786 C 314.471 21.837,314.790 21.983,315.042 22.110 C 315.294 22.238,315.500 22.304,315.500 22.259 C 315.500 22.128,314.541 21.665,314.300 21.680 C 314.154 21.689,314.165 21.724,314.333 21.786 M385.083 21.867 C 384.193 22.376,382.992 23.381,382.502 24.029 C 381.973 24.728,381.981 24.724,382.770 23.898 C 383.606 23.023,384.374 22.420,385.250 21.949 C 385.525 21.801,385.675 21.679,385.583 21.678 C 385.492 21.678,385.267 21.762,385.083 21.867 M190.792 22.095 C 190.145 22.446,190.219 22.567,190.875 22.233 C 191.503 21.914,191.614 21.831,191.403 21.840 C 191.319 21.844,191.044 21.959,190.792 22.095 M204.181 21.888 C 204.464 22.110,205.500 22.677,205.500 22.611 C 205.500 22.503,204.419 21.833,204.244 21.833 C 204.171 21.833,204.142 21.858,204.181 21.888 M214.917 22.442 C 214.367 22.760,213.804 23.142,213.667 23.291 C 213.449 23.526,213.471 23.524,213.833 23.281 C 214.063 23.126,214.588 22.816,215.000 22.590 C 215.950 22.071,216.295 21.835,216.083 21.851 C 215.992 21.858,215.467 22.124,214.917 22.442 M229.833 22.393 C 231.269 23.303,232.499 24.324,232.847 24.894 C 233.022 25.182,233.166 25.306,233.166 25.171 C 233.167 24.804,231.328 23.125,230.220 22.481 C 228.918 21.724,228.699 21.674,229.833 22.393 M258.120 22.403 C 256.847 23.284,255.167 25.191,255.167 25.754 C 255.167 25.829,255.410 25.522,255.708 25.072 C 256.372 24.069,257.314 23.137,258.414 22.394 C 258.872 22.086,259.172 21.837,259.081 21.843 C 258.991 21.848,258.558 22.100,258.120 22.403 M271.510 22.393 C 272.626 23.066,273.295 23.710,273.596 24.402 C 273.719 24.685,273.823 24.797,273.827 24.650 C 273.843 23.972,271.509 21.832,270.755 21.834 C 270.661 21.834,271.000 22.086,271.510 22.393 M341.500 22.008 C 342.078 22.401,342.407 22.515,342.000 22.182 C 341.771 21.994,341.508 21.840,341.417 21.840 C 341.325 21.839,341.363 21.915,341.500 22.008 M360.273 22.202 C 360.217 22.412,360.188 28.546,360.208 35.833 L 360.245 49.083 360.331 35.500 C 360.378 28.029,360.407 21.895,360.396 21.868 C 360.385 21.842,360.330 21.992,360.273 22.202 M397.000 22.008 C 397.578 22.401,397.907 22.515,397.500 22.182 C 397.271 21.994,397.008 21.840,396.917 21.840 C 396.825 21.839,396.863 21.915,397.000 22.008 M166.352 23.044 C 166.159 23.444,166.005 23.879,166.012 24.011 C 166.018 24.142,166.131 23.958,166.261 23.601 C 166.392 23.244,166.585 22.848,166.690 22.722 C 166.795 22.595,166.841 22.452,166.793 22.404 C 166.744 22.356,166.546 22.644,166.352 23.044 M291.583 22.539 C 293.233 23.582,293.772 24.717,293.267 26.083 C 293.190 26.292,293.239 26.261,293.399 26.000 C 294.083 24.885,293.328 23.311,291.750 22.565 C 291.475 22.435,291.400 22.423,291.583 22.539 M102.348 23.208 C 102.935 23.598,103.937 24.442,104.574 25.083 C 105.210 25.725,105.573 26.025,105.380 25.750 C 104.720 24.813,101.917 22.500,101.441 22.500 C 101.353 22.500,101.762 22.819,102.348 23.208 M234.246 35.750 C 234.246 43.083,234.267 46.059,234.292 42.363 C 234.317 38.666,234.317 32.666,234.292 29.029 C 234.267 25.392,234.246 28.417,234.246 35.750 M254.059 23.917 C 254.059 24.742,254.087 25.100,254.122 24.713 C 254.157 24.327,254.157 23.652,254.123 23.213 C 254.088 22.775,254.060 23.092,254.059 23.917 M299.727 22.820 C 299.439 22.996,299.144 23.239,299.073 23.361 C 298.996 23.493,299.074 23.473,299.263 23.313 C 299.439 23.164,299.808 22.923,300.083 22.778 C 300.358 22.632,300.508 22.511,300.417 22.507 C 300.325 22.504,300.014 22.645,299.727 22.820 M324.706 35.630 C 324.664 49.617,324.661 49.548,325.423 50.167 C 325.633 50.338,325.602 50.241,325.324 49.861 L 324.917 49.306 324.831 35.861 L 324.745 22.417 324.706 35.630 M343.404 23.348 C 343.947 23.844,344.603 24.583,344.862 24.991 C 345.121 25.398,345.333 25.659,345.333 25.570 C 345.333 25.162,343.436 23.001,342.750 22.627 C 342.567 22.527,342.861 22.852,343.404 23.348 M348.873 35.630 C 348.830 49.889,348.821 49.728,349.694 50.171 C 350.065 50.359,349.922 50.176,349.128 49.452 C 349.107 49.432,349.050 43.342,349.001 35.917 L 348.912 22.417 348.873 35.630 M188.568 23.478 C 187.518 24.218,186.647 25.000,186.872 25.000 C 186.922 25.000,187.253 24.737,187.607 24.416 C 187.960 24.095,188.606 23.600,189.042 23.315 C 189.744 22.857,189.959 22.667,189.776 22.667 C 189.745 22.667,189.201 23.032,188.568 23.478 M206.619 23.447 C 208.313 24.817,208.675 25.469,208.437 26.714 C 208.363 27.096,208.381 27.178,208.498 27.000 C 208.747 26.620,208.698 25.700,208.395 25.062 C 208.147 24.538,206.111 22.667,205.791 22.667 C 205.715 22.667,206.088 23.018,206.619 23.447 M316.671 22.946 C 316.898 23.100,317.458 23.529,317.917 23.899 C 318.375 24.269,318.601 24.400,318.420 24.189 C 318.038 23.745,316.606 22.667,316.399 22.667 C 316.322 22.667,316.445 22.793,316.671 22.946 M276.393 23.708 C 275.655 24.486,274.408 26.463,274.559 26.615 C 274.591 26.647,274.857 26.223,275.150 25.673 C 275.443 25.123,275.923 24.418,276.216 24.106 C 277.134 23.130,277.388 22.833,277.304 22.833 C 277.259 22.833,276.850 23.227,276.393 23.708 M398.500 22.885 C 398.500 22.914,398.744 23.158,399.042 23.427 L 399.583 23.917 399.094 23.375 C 398.638 22.870,398.500 22.757,398.500 22.885 M175.674 23.090 C 175.670 23.185,175.817 23.557,176.000 23.917 C 176.183 24.276,176.330 24.461,176.326 24.327 C 176.318 24.039,175.684 22.837,175.674 23.090 M212.545 24.042 C 211.489 24.911,208.844 28.333,209.228 28.333 C 209.273 28.333,209.592 27.865,209.938 27.292 C 210.283 26.719,211.189 25.631,211.951 24.875 C 213.435 23.401,213.593 23.178,212.545 24.042 M297.795 24.336 C 297.279 24.796,296.618 25.490,296.325 25.878 C 295.817 26.553,295.825 26.549,296.522 25.780 C 296.922 25.339,297.625 24.648,298.083 24.245 C 298.542 23.842,298.875 23.510,298.825 23.506 C 298.774 23.503,298.311 23.876,297.795 24.336 M318.836 24.583 C 318.835 24.675,319.144 25.050,319.523 25.417 C 319.901 25.783,320.464 26.457,320.772 26.914 C 321.081 27.372,321.333 27.685,321.333 27.611 C 321.333 27.395,320.420 26.152,319.598 25.250 C 319.180 24.792,318.837 24.492,318.836 24.583 M381.531 25.327 C 381.331 25.598,381.167 25.875,381.167 25.942 C 381.167 26.010,381.354 25.811,381.583 25.500 C 381.813 25.189,382.000 24.912,382.000 24.884 C 382.000 24.748,381.864 24.876,381.531 25.327 M186.055 25.792 C 185.519 26.460,185.100 27.167,185.240 27.167 C 185.287 27.167,185.434 26.960,185.567 26.708 C 185.700 26.456,186.036 26.006,186.312 25.708 C 186.588 25.410,186.756 25.167,186.685 25.167 C 186.614 25.167,186.330 25.448,186.055 25.792 M273.686 25.546 C 273.661 25.937,272.738 27.772,272.223 28.459 C 271.610 29.274,270.952 29.549,269.805 29.466 C 269.269 29.427,268.925 29.455,269.040 29.528 C 269.388 29.749,270.818 29.683,271.322 29.423 C 272.223 28.957,273.958 26.205,273.779 25.527 C 273.715 25.285,273.703 25.287,273.686 25.546 M233.209 26.250 C 233.211 26.617,233.245 26.747,233.285 26.540 C 233.324 26.332,233.323 26.032,233.281 25.873 C 233.239 25.714,233.207 25.883,233.209 26.250 M345.334 25.840 C 345.334 25.889,345.483 26.224,345.667 26.583 C 345.850 26.943,346.000 27.128,345.999 26.994 C 345.998 26.860,345.849 26.525,345.667 26.250 C 345.485 25.975,345.335 25.790,345.334 25.840 M399.382 26.615 C 399.179 27.010,399.042 27.333,399.076 27.333 C 399.203 27.333,399.859 26.162,399.805 26.031 C 399.775 25.957,399.584 26.220,399.382 26.615 M129.255 26.316 C 129.196 26.504,128.954 26.810,128.718 26.996 C 128.482 27.181,128.355 27.331,128.436 27.328 C 128.816 27.314,129.651 26.263,129.445 26.056 C 129.400 26.012,129.315 26.129,129.255 26.316 M164.958 26.656 C 164.555 27.513,164.591 27.719,165.009 26.940 C 165.197 26.589,165.328 26.242,165.300 26.169 C 165.273 26.096,165.119 26.315,164.958 26.656 M254.860 26.424 C 254.581 27.037,254.634 27.167,254.936 26.610 C 255.077 26.350,255.162 26.106,255.123 26.068 C 255.085 26.030,254.967 26.190,254.860 26.424 M253.302 26.853 C 253.056 27.117,252.911 27.333,252.979 27.333 C 253.166 27.333,253.833 26.677,253.833 26.494 C 253.833 26.286,253.828 26.289,253.302 26.853 M295.446 27.042 C 294.669 28.314,294.282 29.127,293.756 30.583 C 293.490 31.319,294.004 30.402,294.316 29.583 C 294.491 29.125,294.900 28.281,295.225 27.708 C 295.778 26.733,295.949 26.217,295.446 27.042 M106.171 26.917 C 106.173 27.116,107.160 28.808,107.164 28.619 C 107.165 28.547,106.942 28.097,106.668 27.619 C 106.394 27.141,106.170 26.825,106.171 26.917 M177.174 26.954 C 177.170 27.067,177.316 27.404,177.499 27.704 C 177.682 28.004,177.829 28.175,177.826 28.083 C 177.816 27.823,177.182 26.725,177.174 26.954 M380.694 27.257 C 380.414 27.870,380.468 28.001,380.770 27.444 C 380.911 27.183,380.995 26.939,380.957 26.901 C 380.919 26.863,380.800 27.023,380.694 27.257 M232.444 28.091 C 232.092 28.676,231.511 29.419,231.152 29.744 C 230.793 30.068,230.568 30.333,230.652 30.333 C 231.030 30.333,233.358 27.302,233.144 27.088 C 233.110 27.055,232.796 27.506,232.444 28.091 M292.333 27.887 C 291.108 29.674,289.886 29.946,287.788 28.899 C 287.125 28.569,286.658 28.372,286.750 28.463 C 287.795 29.492,289.990 29.933,291.141 29.346 C 291.680 29.072,293.152 27.253,292.970 27.086 C 292.941 27.059,292.654 27.419,292.333 27.887 M184.731 27.755 C 184.579 27.987,184.485 28.207,184.522 28.244 C 184.559 28.281,184.716 28.092,184.870 27.823 C 185.214 27.223,185.112 27.174,184.731 27.755 M207.335 28.597 C 206.465 29.813,205.853 30.319,205.217 30.346 C 205.028 30.355,204.997 30.392,205.133 30.447 C 205.738 30.689,206.856 29.680,208.076 27.792 C 208.670 26.871,208.215 27.367,207.335 28.597 M117.870 29.958 L 117.833 32.500 121.125 32.462 L 124.417 32.424 121.213 32.375 L 118.009 32.326 117.958 29.871 L 117.907 27.417 117.870 29.958 M138.870 29.958 L 138.833 32.500 142.208 32.462 L 145.583 32.424 142.296 32.375 L 139.009 32.326 138.958 29.871 L 138.907 27.417 138.870 29.958 M242.370 29.958 L 242.333 32.500 245.708 32.462 L 249.083 32.424 245.796 32.375 L 242.509 32.326 242.458 29.871 L 242.407 27.417 242.370 29.958 M368.370 29.958 L 368.333 32.500 371.792 32.462 L 375.250 32.424 371.879 32.375 L 368.509 32.326 368.458 29.872 L 368.407 27.417 368.370 29.958 M398.669 27.995 C 398.554 28.273,398.412 28.503,398.355 28.507 C 398.176 28.518,397.086 29.500,397.256 29.497 C 397.690 29.488,399.180 27.791,398.953 27.564 C 398.912 27.523,398.784 27.717,398.669 27.995 M95.667 27.917 C 95.896 28.048,96.158 28.155,96.250 28.155 C 96.342 28.155,96.229 28.048,96.000 27.917 C 95.771 27.786,95.508 27.678,95.417 27.678 C 95.325 27.678,95.438 27.786,95.667 27.917 M265.000 27.917 C 265.321 28.040,265.733 28.142,265.917 28.143 C 266.100 28.144,265.912 28.038,265.500 27.908 C 264.558 27.611,264.222 27.617,265.000 27.917 M274.233 30.083 C 274.234 31.458,274.259 31.999,274.291 31.284 C 274.322 30.569,274.322 29.444,274.290 28.784 C 274.259 28.124,274.233 28.708,274.233 30.083 M283.878 27.802 C 283.758 27.878,283.932 27.932,284.295 27.931 C 284.637 27.930,285.142 27.984,285.417 28.050 C 285.856 28.155,285.846 28.141,285.333 27.931 C 284.666 27.658,284.174 27.614,283.878 27.802 M263.583 28.000 C 263.373 28.090,263.342 28.143,263.500 28.143 C 263.637 28.143,263.900 28.079,264.083 28.000 C 264.293 27.910,264.324 27.857,264.167 27.857 C 264.029 27.857,263.767 27.921,263.583 28.000 M336.982 28.132 C 337.201 28.309,337.526 28.633,337.704 28.852 C 337.883 29.071,337.974 29.137,337.906 29.000 C 337.705 28.592,337.277 28.147,336.919 27.973 C 336.664 27.850,336.679 27.888,336.982 28.132 M391.417 28.000 C 391.600 28.079,391.863 28.143,392.000 28.143 C 392.158 28.143,392.127 28.090,391.917 28.000 C 391.733 27.921,391.471 27.857,391.333 27.857 C 391.176 27.857,391.207 27.910,391.417 28.000 M97.375 28.832 C 97.965 29.255,98.491 29.818,98.815 30.374 C 99.096 30.856,99.328 31.188,99.330 31.113 C 99.346 30.490,97.180 28.167,96.583 28.167 C 96.507 28.167,96.864 28.466,97.375 28.832 M262.609 28.471 C 262.160 28.968,262.252 29.878,262.792 30.271 C 263.530 30.809,263.792 30.906,263.250 30.441 C 262.975 30.205,262.694 30.009,262.625 30.006 C 262.306 29.991,262.509 28.679,262.870 28.426 C 263.074 28.283,263.161 28.167,263.063 28.167 C 262.965 28.167,262.761 28.304,262.609 28.471 M266.500 28.286 C 266.637 28.337,266.900 28.447,267.083 28.532 C 267.411 28.683,267.411 28.681,267.093 28.426 C 266.915 28.283,266.653 28.173,266.510 28.180 C 266.285 28.191,266.284 28.206,266.500 28.286 M321.650 28.417 C 321.931 28.960,322.162 29.262,322.160 29.083 C 322.160 28.992,322.006 28.729,321.818 28.500 C 321.592 28.223,321.535 28.195,321.650 28.417 M388.643 28.486 C 388.427 28.661,388.289 28.843,388.336 28.891 C 388.383 28.938,388.597 28.795,388.812 28.572 C 389.278 28.087,389.191 28.042,388.643 28.486 M164.116 28.823 C 163.961 29.086,163.833 29.399,163.833 29.519 C 163.833 29.639,163.982 29.445,164.164 29.088 C 164.555 28.321,164.522 28.136,164.116 28.823 M393.000 28.415 C 393.000 28.529,394.020 29.035,394.097 28.959 C 394.133 28.923,393.901 28.768,393.581 28.616 C 393.262 28.463,393.000 28.373,393.000 28.415 M184.096 28.976 C 183.719 29.705,183.773 29.850,184.176 29.190 C 184.364 28.881,184.482 28.593,184.438 28.549 C 184.394 28.505,184.240 28.697,184.096 28.976 M196.750 28.768 L 195.917 28.996 196.667 28.876 C 197.079 28.810,197.893 28.758,198.476 28.761 C 199.086 28.764,199.404 28.715,199.226 28.645 C 198.756 28.460,197.678 28.514,196.750 28.768 M222.023 28.644 C 221.806 28.705,222.246 28.754,223.000 28.754 C 223.754 28.754,224.194 28.705,223.977 28.644 C 223.761 28.583,223.321 28.533,223.000 28.533 C 222.679 28.533,222.239 28.583,222.023 28.644 M307.346 28.646 C 307.115 28.711,307.505 28.759,308.250 28.759 C 308.995 28.759,309.385 28.711,309.154 28.646 C 308.932 28.584,308.525 28.533,308.250 28.533 C 307.975 28.533,307.568 28.584,307.346 28.646 M282.068 29.085 C 281.933 29.624,282.338 30.248,283.043 30.584 C 283.577 30.838,283.579 30.838,283.170 30.545 C 282.319 29.936,282.128 29.653,282.228 29.149 C 282.347 28.558,282.214 28.505,282.068 29.085 M380.225 30.000 C 380.225 30.779,380.254 31.098,380.289 30.708 C 380.324 30.319,380.324 29.681,380.289 29.292 C 380.254 28.902,380.225 29.221,380.225 30.000 M219.060 29.667 C 218.498 30.034,217.856 30.577,217.632 30.875 C 216.979 31.743,216.288 33.119,216.385 33.361 C 216.446 33.515,216.478 33.496,216.487 33.301 C 216.533 32.305,218.271 30.222,219.693 29.458 C 220.162 29.206,220.441 29.000,220.313 29.000 C 220.185 29.000,219.621 29.300,219.060 29.667 M394.333 29.073 C 394.333 29.246,395.329 29.666,395.700 29.650 C 396.013 29.636,395.992 29.610,395.583 29.512 C 395.308 29.446,394.915 29.301,394.708 29.190 C 394.502 29.079,394.333 29.026,394.333 29.073 M194.144 29.748 C 193.633 30.067,193.027 30.611,192.798 30.956 C 191.938 32.247,191.644 32.838,191.718 33.123 C 191.791 33.403,191.796 33.403,191.814 33.122 C 191.874 32.207,193.226 30.439,194.385 29.760 C 195.057 29.366,195.304 29.167,195.120 29.167 C 195.094 29.167,194.655 29.428,194.144 29.748 M304.308 29.663 C 303.895 29.936,303.414 30.324,303.237 30.525 C 303.061 30.726,303.300 30.596,303.769 30.237 C 304.238 29.877,304.763 29.494,304.936 29.385 C 305.109 29.276,305.207 29.182,305.154 29.176 C 305.101 29.171,304.720 29.390,304.308 29.663 M311.333 29.240 C 311.333 29.287,311.563 29.444,311.844 29.589 C 312.523 29.940,313.702 31.151,314.048 31.853 C 314.201 32.163,314.327 32.318,314.330 32.197 C 314.336 31.835,313.386 30.569,312.712 30.041 C 312.034 29.510,311.333 29.102,311.333 29.240 M107.333 29.430 C 107.333 29.523,107.405 29.672,107.493 29.760 C 107.581 29.848,107.764 30.331,107.899 30.835 C 108.034 31.338,108.150 31.592,108.156 31.400 C 108.162 31.207,108.080 30.795,107.974 30.483 C 107.763 29.864,107.333 29.157,107.333 29.430 M254.212 30.000 C 254.212 30.412,254.245 30.581,254.284 30.375 C 254.324 30.169,254.324 29.831,254.284 29.625 C 254.245 29.419,254.212 29.587,254.212 30.000 M388.333 29.650 C 388.333 29.838,389.028 30.433,389.500 30.649 C 389.857 30.813,389.870 30.810,389.590 30.628 C 389.410 30.512,389.054 30.216,388.798 29.971 C 388.542 29.726,388.333 29.582,388.333 29.650 M202.167 29.717 C 202.167 29.895,203.297 30.500,203.603 30.486 C 203.827 30.475,203.794 30.434,203.486 30.341 C 203.249 30.269,202.855 30.079,202.611 29.919 C 202.366 29.759,202.167 29.668,202.167 29.717 M163.680 30.002 C 163.673 30.141,163.517 30.535,163.333 30.877 C 163.150 31.219,163.001 31.593,163.002 31.708 C 163.003 31.823,163.195 31.519,163.429 31.033 C 163.664 30.546,163.819 30.059,163.774 29.949 C 163.723 29.825,163.688 29.845,163.680 30.002 M338.039 30.333 C 338.039 30.654,338.073 30.785,338.115 30.625 C 338.157 30.465,338.157 30.202,338.115 30.042 C 338.073 29.881,338.039 30.012,338.039 30.333 M322.345 30.083 C 322.345 30.175,322.452 30.438,322.583 30.667 C 322.714 30.896,322.822 31.008,322.822 30.917 C 322.822 30.825,322.714 30.563,322.583 30.333 C 322.452 30.104,322.345 29.992,322.345 30.083 M178.668 30.840 C 178.668 30.974,178.818 31.308,179.000 31.583 C 179.425 32.224,179.425 32.083,179.000 31.250 C 178.817 30.890,178.667 30.706,178.668 30.840 M183.271 31.330 C 183.122 31.702,183.004 32.099,183.008 32.212 C 183.012 32.324,183.160 32.046,183.337 31.593 C 183.514 31.140,183.632 30.743,183.600 30.711 C 183.568 30.679,183.420 30.957,183.271 31.330 M208.161 31.208 C 208.158 31.415,208.048 31.771,207.917 32.000 C 207.786 32.229,207.679 32.567,207.680 32.750 C 207.681 32.942,207.791 32.801,207.940 32.417 C 208.247 31.623,208.412 30.833,208.269 30.833 C 208.213 30.833,208.164 31.002,208.161 31.208 M264.667 31.119 C 264.804 31.170,265.067 31.281,265.250 31.365 C 265.578 31.516,265.578 31.514,265.260 31.259 C 265.082 31.117,264.819 31.006,264.676 31.013 C 264.452 31.025,264.451 31.039,264.667 31.119 M391.167 31.333 C 391.488 31.509,391.863 31.654,392.000 31.656 C 392.137 31.658,391.923 31.511,391.523 31.330 C 390.604 30.913,390.402 30.915,391.167 31.333 M99.334 31.357 C 99.334 31.416,99.482 31.791,99.663 32.190 C 99.844 32.590,99.994 32.787,99.996 32.629 C 99.998 32.471,99.850 32.096,99.667 31.796 C 99.484 31.496,99.334 31.298,99.334 31.357 M337.763 31.791 C 337.708 31.965,337.428 32.347,337.141 32.641 C 336.855 32.934,336.736 33.129,336.879 33.075 C 337.191 32.955,338.089 31.700,337.957 31.568 C 337.906 31.517,337.819 31.617,337.763 31.791 M286.601 31.903 C 286.977 32.021,287.371 32.170,287.476 32.235 C 287.581 32.300,287.667 32.307,287.667 32.251 C 287.667 32.102,286.559 31.665,286.214 31.678 C 286.050 31.684,286.225 31.785,286.601 31.903 M302.158 32.106 C 302.066 32.348,302.022 32.577,302.059 32.615 C 302.097 32.653,302.208 32.455,302.305 32.175 C 302.522 31.553,302.391 31.493,302.158 32.106 M380.405 32.083 C 380.470 32.358,380.595 32.657,380.683 32.746 C 380.771 32.836,380.754 32.648,380.646 32.330 C 380.394 31.583,380.252 31.438,380.405 32.083 M267.500 32.167 C 267.821 32.342,268.158 32.486,268.250 32.486 C 268.342 32.486,268.154 32.342,267.833 32.167 C 267.512 31.991,267.175 31.847,267.083 31.847 C 266.992 31.847,267.179 31.991,267.500 32.167 M393.426 32.078 C 393.604 32.213,393.825 32.323,393.917 32.323 C 394.008 32.323,393.938 32.213,393.760 32.078 C 393.582 31.943,393.361 31.833,393.270 31.833 C 393.178 31.833,393.249 31.943,393.426 32.078 M254.439 32.500 C 254.530 33.055,255.158 34.276,255.164 33.908 C 255.165 33.812,255.091 33.658,254.999 33.565 C 254.906 33.473,254.721 33.064,254.588 32.657 C 254.379 32.021,254.358 31.999,254.439 32.500 M293.383 32.833 C 293.383 33.337,293.415 33.544,293.453 33.292 C 293.491 33.040,293.491 32.627,293.453 32.375 C 293.415 32.123,293.383 32.329,293.383 32.833 M323.050 32.833 C 323.050 33.337,323.081 33.544,323.119 33.292 C 323.158 33.040,323.158 32.627,323.119 32.375 C 323.081 32.123,323.050 32.329,323.050 32.833 M108.193 32.583 C 108.192 32.675,108.293 33.012,108.417 33.333 C 108.540 33.654,108.644 33.804,108.646 33.667 C 108.649 33.529,108.549 33.192,108.423 32.917 C 108.297 32.642,108.193 32.492,108.193 32.583 M125.750 32.755 C 126.117 32.887,126.439 32.996,126.466 32.997 C 126.494 32.999,126.661 33.319,126.838 33.708 C 127.169 34.438,127.293 34.354,127.004 33.594 C 126.821 33.113,125.922 32.498,125.417 32.508 C 125.226 32.512,125.370 32.618,125.750 32.755 M162.535 32.839 C 162.424 33.017,162.334 33.257,162.334 33.373 C 162.335 33.489,162.449 33.366,162.587 33.100 C 162.876 32.546,162.838 32.354,162.535 32.839 M170.899 32.792 C 170.850 32.952,170.700 33.346,170.568 33.667 C 170.345 34.204,170.347 34.224,170.590 33.917 C 170.735 33.733,170.896 33.378,170.947 33.128 C 170.999 32.877,171.106 32.713,171.187 32.763 C 171.267 32.812,171.333 32.774,171.333 32.677 C 171.333 32.387,170.997 32.476,170.899 32.792 M268.667 32.619 C 268.804 32.671,269.123 32.817,269.375 32.944 C 269.627 33.071,269.833 33.138,269.833 33.092 C 269.833 32.961,268.874 32.499,268.633 32.513 C 268.488 32.522,268.499 32.557,268.667 32.619 M314.343 32.667 C 314.344 32.804,314.452 33.104,314.583 33.333 C 314.753 33.631,314.822 34.322,314.822 35.750 C 314.822 37.178,314.753 37.869,314.583 38.167 C 314.452 38.396,314.344 38.696,314.343 38.833 C 314.342 38.971,314.489 38.756,314.670 38.357 C 314.936 37.771,315.000 37.267,315.000 35.750 C 315.000 34.233,314.936 33.729,314.670 33.143 C 314.489 32.744,314.342 32.529,314.343 32.667 M376.330 32.686 C 376.557 32.777,376.861 32.941,377.005 33.050 C 377.149 33.160,377.090 33.081,376.874 32.875 C 376.658 32.669,376.354 32.505,376.199 32.511 C 376.011 32.518,376.055 32.576,376.330 32.686 M147.223 32.855 C 147.392 32.953,147.633 33.270,147.759 33.558 C 147.884 33.847,147.990 33.962,147.993 33.814 C 148.002 33.477,147.376 32.665,147.113 32.672 C 147.005 32.675,147.055 32.757,147.223 32.855 M250.894 33.012 C 251.136 33.202,251.339 33.483,251.346 33.637 C 251.356 33.829,251.387 33.847,251.448 33.696 C 251.540 33.466,250.893 32.667,250.615 32.667 C 250.527 32.667,250.653 32.822,250.894 33.012 M289.417 33.088 C 289.783 33.314,290.158 33.498,290.250 33.497 C 290.342 33.497,290.090 33.309,289.691 33.081 C 288.756 32.546,288.546 32.551,289.417 33.088 M179.507 32.857 C 179.503 32.916,179.648 33.291,179.830 33.690 C 180.011 34.090,180.158 34.304,180.156 34.167 C 180.153 33.922,179.521 32.646,179.507 32.857 M182.902 35.750 C 182.902 37.400,182.927 38.052,182.958 37.200 C 182.988 36.347,182.988 34.997,182.957 34.200 C 182.927 33.402,182.902 34.100,182.902 35.750 M274.346 32.967 C 274.332 33.208,274.794 34.167,274.925 34.167 C 274.971 34.167,274.904 33.960,274.777 33.708 C 274.650 33.456,274.504 33.137,274.453 33.000 C 274.390 32.832,274.355 32.821,274.346 32.967 M301.673 33.156 C 301.572 33.343,301.514 34.445,301.533 35.781 L 301.566 38.083 301.658 35.667 C 301.709 34.337,301.811 33.156,301.885 33.042 C 301.959 32.927,301.980 32.833,301.932 32.833 C 301.884 32.833,301.767 32.978,301.673 33.156 M345.531 33.866 C 345.318 34.325,345.174 34.730,345.211 34.766 C 345.247 34.803,345.452 34.458,345.667 34.000 C 345.881 33.542,346.025 33.137,345.987 33.100 C 345.948 33.063,345.743 33.408,345.531 33.866 M207.542 33.750 C 207.544 34.117,207.578 34.247,207.618 34.040 C 207.658 33.832,207.656 33.532,207.615 33.373 C 207.573 33.214,207.540 33.383,207.542 33.750 M271.149 33.971 C 272.095 34.682,273.659 36.536,273.680 36.969 C 273.689 37.164,273.720 37.182,273.782 37.028 C 273.989 36.508,271.141 33.333,270.467 33.333 C 270.375 33.333,270.682 33.620,271.149 33.971 M335.083 33.500 C 334.873 33.590,334.842 33.643,335.000 33.643 C 335.137 33.643,335.400 33.579,335.583 33.500 C 335.793 33.410,335.824 33.357,335.667 33.357 C 335.529 33.357,335.267 33.421,335.083 33.500 M290.750 33.742 C 290.933 33.884,291.509 34.424,292.030 34.941 L 292.976 35.881 293.091 35.266 C 293.155 34.928,293.160 34.605,293.103 34.548 C 293.047 34.491,293.000 34.632,293.000 34.861 C 293.000 35.550,292.836 35.518,291.978 34.660 C 291.527 34.209,290.991 33.760,290.787 33.661 C 290.426 33.486,290.425 33.488,290.750 33.742 M171.501 33.840 C 171.502 33.974,171.651 34.308,171.833 34.583 C 172.258 35.224,172.258 35.083,171.833 34.250 C 171.650 33.890,171.500 33.706,171.501 33.840 M191.465 33.921 C 191.413 34.102,191.320 34.400,191.258 34.583 C 191.196 34.767,191.267 34.706,191.417 34.448 C 191.566 34.191,191.659 33.893,191.623 33.786 C 191.588 33.679,191.516 33.740,191.465 33.921 M100.062 35.667 C 100.062 36.629,100.089 37.023,100.123 36.542 C 100.157 36.060,100.157 35.273,100.123 34.792 C 100.089 34.310,100.062 34.704,100.062 35.667 M108.700 35.583 C 108.680 36.500,108.551 37.619,108.415 38.069 C 108.278 38.520,108.197 38.919,108.234 38.957 C 108.480 39.202,108.840 36.992,108.791 35.537 L 108.736 33.917 108.700 35.583 M216.083 35.333 C 216.017 36.077,215.999 36.722,216.043 36.765 C 216.087 36.809,216.176 36.235,216.241 35.491 C 216.306 34.746,216.324 34.102,216.281 34.059 C 216.238 34.016,216.149 34.589,216.083 35.333 M398.095 34.680 C 398.469 35.085,398.975 35.666,399.220 35.971 C 399.466 36.276,399.667 36.480,399.667 36.425 C 399.667 36.218,398.293 34.572,397.863 34.263 C 397.557 34.044,397.631 34.176,398.095 34.680 M381.167 34.216 C 381.167 34.517,382.528 36.159,383.196 36.663 L 383.917 37.206 383.125 36.478 C 382.689 36.078,382.071 35.375,381.750 34.917 C 381.429 34.459,381.167 34.144,381.167 34.216 M148.061 35.917 C 148.061 36.833,148.089 37.187,148.123 36.703 C 148.157 36.218,148.156 35.468,148.122 35.036 C 148.088 34.604,148.060 35.000,148.061 35.917 M161.783 34.823 C 161.627 35.086,161.500 35.399,161.500 35.519 C 161.500 35.639,161.649 35.445,161.831 35.088 C 162.222 34.321,162.189 34.136,161.783 34.823 M275.001 34.437 C 274.998 35.224,278.432 38.167,279.353 38.167 C 279.469 38.167,279.095 37.923,278.522 37.625 C 277.392 37.038,275.890 35.708,275.344 34.812 C 275.155 34.503,275.001 34.334,275.001 34.437 M127.201 35.947 C 127.162 37.485,127.023 37.972,126.469 38.505 C 126.110 38.849,126.108 38.862,126.437 38.693 C 127.077 38.364,127.353 37.481,127.291 35.961 L 127.235 34.583 127.201 35.947 M255.434 34.833 C 255.723 35.409,256.424 36.209,257.065 36.694 C 257.695 37.172,257.682 37.148,256.908 36.399 C 256.445 35.950,255.896 35.358,255.687 35.083 C 255.479 34.808,255.365 34.696,255.434 34.833 M190.972 36.167 C 190.942 36.809,190.973 37.334,191.042 37.334 C 191.110 37.334,191.167 36.808,191.167 36.167 C 191.167 34.660,191.043 34.660,190.972 36.167 M344.498 35.778 C 343.911 36.595,342.872 37.610,342.272 37.952 C 342.076 38.064,342.000 38.158,342.102 38.161 C 342.597 38.177,344.332 36.447,345.063 35.208 C 345.352 34.719,345.013 35.061,344.498 35.778 M169.942 35.543 C 169.879 35.794,169.753 36.000,169.663 36.000 C 169.574 36.000,169.500 36.168,169.500 36.373 C 169.500 36.672,169.567 36.620,169.842 36.107 C 170.030 35.756,170.155 35.383,170.120 35.277 C 170.085 35.172,170.005 35.292,169.942 35.543 M323.205 35.667 C 323.205 35.987,323.240 36.119,323.282 35.958 C 323.323 35.798,323.323 35.535,323.282 35.375 C 323.240 35.215,323.205 35.346,323.205 35.667 M161.164 36.447 C 160.789 37.420,160.790 37.471,161.170 36.780 C 161.362 36.430,161.495 36.068,161.464 35.977 C 161.434 35.885,161.298 36.096,161.164 36.447 M172.340 36.083 C 172.343 36.175,172.452 36.438,172.583 36.667 C 173.133 37.629,173.016 37.702,171.015 37.640 C 170.015 37.609,169.284 37.638,169.390 37.706 C 169.496 37.773,170.352 37.829,171.292 37.831 C 173.226 37.834,173.399 37.662,172.667 36.462 C 172.484 36.162,172.337 35.992,172.340 36.083 M216.209 37.583 C 216.211 37.950,216.245 38.080,216.285 37.873 C 216.324 37.666,216.323 37.366,216.281 37.206 C 216.239 37.047,216.207 37.217,216.209 37.583 M207.545 37.833 C 207.545 38.246,207.578 38.415,207.618 38.208 C 207.657 38.002,207.657 37.665,207.618 37.458 C 207.578 37.252,207.545 37.421,207.545 37.833 M191.173 37.523 C 191.169 37.581,191.276 37.881,191.410 38.189 C 191.544 38.498,191.654 38.637,191.654 38.500 C 191.655 38.260,191.185 37.306,191.173 37.523 M251.352 38.017 C 251.222 38.312,250.900 38.632,250.603 38.761 C 250.261 38.909,250.189 38.989,250.391 38.993 C 250.741 39.001,251.667 38.085,251.667 37.732 C 251.667 37.389,251.606 37.443,251.352 38.017 M147.762 38.094 C 147.695 38.360,147.453 38.609,147.119 38.754 C 146.792 38.896,146.700 38.989,146.883 38.993 C 147.247 39.001,148.000 38.280,148.000 37.924 C 148.000 37.532,147.882 37.616,147.762 38.094 M385.074 37.907 C 385.251 38.050,385.514 38.161,385.657 38.154 C 385.881 38.142,385.883 38.128,385.667 38.048 C 385.529 37.997,385.267 37.886,385.083 37.802 C 384.755 37.651,384.755 37.652,385.074 37.907 M323.050 38.667 C 323.050 39.171,323.081 39.377,323.119 39.125 C 323.158 38.873,323.158 38.460,323.119 38.208 C 323.081 37.956,323.050 38.162,323.050 38.667 M377.173 38.322 C 377.078 38.499,376.845 38.694,376.654 38.754 C 376.464 38.814,376.345 38.900,376.390 38.945 C 376.527 39.083,377.149 38.678,377.335 38.330 C 377.432 38.148,377.474 38.000,377.428 38.000 C 377.383 38.000,377.268 38.145,377.173 38.322 M160.283 38.656 C 160.127 38.919,160.000 39.233,160.000 39.353 C 160.000 39.472,160.149 39.278,160.331 38.922 C 160.722 38.154,160.689 37.969,160.283 38.656 M260.477 38.504 C 260.876 38.685,261.251 38.830,261.310 38.826 C 261.520 38.813,260.245 38.181,260.000 38.177 C 259.862 38.175,260.077 38.322,260.477 38.504 M386.786 38.585 C 386.984 38.724,387.394 38.874,387.698 38.918 L 388.250 38.999 387.667 38.820 C 387.346 38.721,387.012 38.571,386.925 38.487 C 386.838 38.402,386.690 38.333,386.596 38.333 C 386.503 38.333,386.588 38.447,386.786 38.585 M99.853 38.695 C 99.842 38.848,99.723 39.185,99.588 39.445 C 99.453 39.704,99.227 40.182,99.085 40.506 C 98.712 41.364,97.879 42.312,97.019 42.857 C 96.606 43.119,96.340 43.333,96.429 43.333 C 97.172 43.333,99.070 41.318,99.411 40.167 C 99.479 39.938,99.644 39.577,99.778 39.365 C 99.911 39.153,99.987 38.853,99.946 38.698 C 99.878 38.439,99.870 38.439,99.853 38.695 M207.679 38.833 C 207.679 39.074,208.149 40.028,208.161 39.811 C 208.164 39.753,208.057 39.453,207.923 39.144 C 207.789 38.836,207.679 38.696,207.679 38.833 M342.237 39.042 C 342.732 39.904,343.072 40.417,343.590 41.083 C 343.876 41.450,344.311 42.102,344.557 42.533 C 344.803 42.964,345.097 43.373,345.210 43.443 C 345.324 43.512,345.286 43.385,345.126 43.160 C 344.966 42.934,344.724 42.550,344.588 42.307 C 344.372 41.921,343.216 40.262,342.279 38.995 L 341.975 38.583 342.237 39.042 M216.333 38.963 C 216.333 39.414,217.373 41.206,217.996 41.829 C 218.589 42.422,219.667 43.129,219.667 42.925 C 219.667 42.879,219.460 42.735,219.208 42.604 C 218.786 42.385,218.058 41.728,217.534 41.093 C 217.415 40.949,217.097 40.363,216.826 39.791 C 216.555 39.218,216.334 38.846,216.333 38.963 M117.870 41.458 L 117.907 43.917 117.958 41.545 L 118.009 39.173 121.630 39.125 L 125.250 39.076 121.542 39.038 L 117.833 39.000 117.870 41.458 M138.870 41.458 L 138.907 43.917 138.958 41.545 L 139.009 39.173 142.713 39.125 L 146.417 39.077 142.625 39.038 L 138.833 39.000 138.870 41.458 M242.370 41.458 L 242.407 43.917 242.458 41.545 L 242.509 39.173 246.130 39.125 L 249.750 39.076 246.042 39.038 L 242.333 39.000 242.370 41.458 M262.977 39.337 C 263.376 39.518,263.789 39.665,263.893 39.663 C 263.998 39.661,263.756 39.511,263.357 39.330 C 262.957 39.148,262.545 39.002,262.440 39.004 C 262.336 39.006,262.577 39.156,262.977 39.337 M368.370 41.458 L 368.407 43.917 368.458 41.545 L 368.509 39.173 372.213 39.125 L 375.917 39.077 372.125 39.038 L 368.333 39.000 368.370 41.458 M388.667 39.119 C 388.804 39.170,389.067 39.281,389.250 39.365 C 389.578 39.516,389.578 39.514,389.260 39.259 C 389.082 39.117,388.819 39.006,388.676 39.013 C 388.452 39.025,388.451 39.039,388.667 39.119 M183.005 39.372 C 183.000 39.676,183.506 41.050,183.592 40.963 C 183.620 40.936,183.500 40.501,183.327 39.998 C 183.153 39.495,183.008 39.213,183.005 39.372 M302.170 39.311 C 302.158 40.063,304.811 42.500,305.642 42.500 C 305.783 42.500,305.520 42.311,305.058 42.081 C 304.084 41.596,302.836 40.426,302.445 39.633 C 302.296 39.331,302.173 39.186,302.170 39.311 M274.555 40.583 C 274.555 41.225,274.586 41.467,274.622 41.121 C 274.658 40.775,274.657 40.250,274.620 39.955 C 274.583 39.659,274.554 39.942,274.555 40.583 M284.805 40.101 C 286.196 40.793,286.478 41.845,285.549 42.871 C 285.294 43.153,285.293 43.172,285.543 43.076 C 286.961 42.532,285.800 39.667,284.161 39.667 C 284.036 39.667,284.326 39.862,284.805 40.101 M313.083 40.736 C 312.533 41.302,311.746 41.931,311.333 42.133 C 310.921 42.335,310.697 42.500,310.836 42.500 C 311.422 42.500,313.521 40.821,314.012 39.958 C 314.247 39.547,314.202 39.585,313.083 40.736 M192.200 40.458 C 192.844 41.593,194.619 43.172,195.241 43.165 C 195.338 43.164,195.079 42.971,194.667 42.737 C 193.658 42.164,192.766 41.274,192.409 40.484 C 192.248 40.126,192.055 39.833,191.980 39.833 C 191.906 39.833,192.004 40.115,192.200 40.458 M265.079 40.039 C 265.728 40.454,266.500 41.306,266.503 41.608 C 266.505 41.851,266.537 41.867,266.652 41.685 C 266.834 41.397,265.978 40.407,265.250 40.064 C 264.974 39.934,264.897 39.923,265.079 40.039 M391.250 40.110 C 391.525 40.255,391.937 40.533,392.165 40.729 L 392.581 41.083 392.249 40.691 C 391.926 40.310,391.151 39.827,390.883 39.840 C 390.810 39.844,390.975 39.965,391.250 40.110 M159.411 40.845 C 159.265 41.126,159.170 41.422,159.198 41.504 C 159.227 41.585,159.376 41.355,159.529 40.992 C 159.860 40.211,159.786 40.119,159.411 40.845 M182.501 40.673 C 182.502 40.807,182.651 41.142,182.833 41.417 C 183.258 42.058,183.258 41.916,182.833 41.083 C 182.650 40.724,182.500 40.539,182.501 40.673 M322.527 40.924 C 322.248 41.537,322.301 41.667,322.603 41.110 C 322.744 40.850,322.828 40.606,322.790 40.568 C 322.752 40.530,322.634 40.690,322.527 40.924 M333.290 40.609 C 333.529 40.661,334.032 41.226,334.684 42.178 C 335.591 43.503,336.137 44.164,335.674 43.375 C 334.817 41.920,333.705 40.581,333.331 40.556 C 332.965 40.532,332.960 40.538,333.290 40.609 M107.664 41.280 C 107.289 42.253,107.290 42.304,107.670 41.613 C 107.862 41.263,107.995 40.902,107.964 40.810 C 107.934 40.718,107.798 40.930,107.664 41.280 M208.334 41.506 C 208.335 41.640,208.485 41.975,208.667 42.250 C 209.091 42.891,209.091 42.749,208.667 41.917 C 208.483 41.557,208.334 41.372,208.334 41.506 M258.417 41.588 C 259.252 41.889,259.366 41.888,258.833 41.583 C 258.604 41.452,258.267 41.346,258.083 41.347 C 257.900 41.347,258.050 41.456,258.417 41.588 M276.000 41.502 C 275.824 41.618,275.923 41.634,276.333 41.559 C 277.052 41.427,277.188 41.332,276.653 41.336 C 276.431 41.337,276.137 41.412,276.000 41.502 M277.880 41.515 C 278.227 41.597,278.733 41.779,279.005 41.919 C 279.277 42.060,279.500 42.132,279.500 42.079 C 279.500 41.901,278.085 41.341,277.667 41.354 C 277.359 41.363,277.415 41.406,277.880 41.515 M203.877 41.620 C 204.131 41.658,204.506 41.657,204.711 41.617 C 204.916 41.578,204.708 41.546,204.250 41.548 C 203.792 41.549,203.624 41.581,203.877 41.620 M228.625 41.618 C 228.831 41.657,229.169 41.657,229.375 41.618 C 229.581 41.578,229.412 41.545,229.000 41.545 C 228.588 41.545,228.419 41.578,228.625 41.618 M226.431 42.420 C 225.797 42.831,225.359 43.167,225.456 43.167 C 225.553 43.167,226.034 42.896,226.525 42.564 C 227.015 42.233,227.567 41.900,227.750 41.825 C 227.964 41.737,227.994 41.685,227.833 41.681 C 227.696 41.677,227.065 42.010,226.431 42.420 M230.500 41.946 C 231.256 42.286,232.637 43.805,232.926 44.616 C 233.059 44.989,233.155 45.113,233.159 44.917 C 233.176 44.037,230.944 41.644,230.136 41.675 C 230.015 41.680,230.179 41.802,230.500 41.946 M255.269 42.015 C 254.865 42.333,254.211 43.333,254.408 43.333 C 254.454 43.333,254.610 43.105,254.754 42.826 C 254.898 42.547,255.256 42.172,255.550 41.993 C 255.843 41.814,256.000 41.668,255.897 41.667 C 255.795 41.667,255.513 41.823,255.269 42.015 M381.456 41.999 C 381.224 42.181,380.764 42.738,380.433 43.237 C 380.102 43.735,379.738 44.174,379.624 44.212 C 379.492 44.257,379.503 44.276,379.653 44.266 C 379.783 44.257,380.204 43.800,380.590 43.251 C 380.975 42.701,381.506 42.120,381.770 41.960 C 382.034 41.800,382.166 41.668,382.064 41.668 C 381.962 41.667,381.688 41.816,381.456 41.999 M158.792 42.440 C 158.631 42.755,158.500 43.101,158.500 43.209 C 158.500 43.316,158.651 43.108,158.835 42.747 C 159.019 42.386,159.150 42.040,159.126 41.978 C 159.103 41.916,158.952 42.124,158.792 42.440 M201.756 42.353 C 200.952 42.956,200.809 43.102,201.250 42.868 C 201.763 42.595,202.751 41.832,202.574 41.845 C 202.487 41.851,202.119 42.080,201.756 42.353 M206.583 42.517 C 206.991 42.894,207.552 43.544,207.829 43.963 C 208.106 44.381,208.333 44.646,208.333 44.551 C 208.333 44.207,206.268 41.833,205.968 41.833 C 205.898 41.833,206.175 42.141,206.583 42.517 M259.686 42.136 C 260.243 42.560,261.264 43.167,261.421 43.167 C 261.493 43.167,261.088 42.867,260.520 42.500 C 259.450 41.808,258.994 41.609,259.686 42.136 M274.194 42.475 C 273.918 43.394,274.025 43.502,274.517 42.801 C 274.730 42.498,275.020 42.148,275.161 42.024 C 275.307 41.895,275.225 41.911,274.970 42.062 C 274.556 42.306,274.519 42.304,274.467 42.038 C 274.436 41.875,274.318 42.063,274.194 42.475 M385.583 41.958 C 385.918 42.333,387.740 43.333,388.074 43.326 C 388.291 43.321,388.188 43.237,387.793 43.096 C 387.450 42.974,386.982 42.752,386.752 42.603 C 385.804 41.991,385.426 41.783,385.583 41.958 M183.835 42.123 C 183.826 43.075,186.470 46.617,188.142 47.891 C 190.030 49.329,189.939 49.111,188.000 47.551 C 186.466 46.316,185.497 45.122,184.557 43.306 C 184.161 42.542,183.837 42.009,183.835 42.123 M266.000 42.584 C 265.843 42.876,265.498 43.085,264.847 43.282 C 264.335 43.436,263.842 43.628,263.750 43.708 C 263.647 43.797,263.679 43.822,263.833 43.773 C 263.971 43.729,264.464 43.572,264.930 43.426 C 265.670 43.192,266.840 42.167,266.366 42.167 C 266.288 42.167,266.123 42.354,266.000 42.584 M293.879 42.833 C 293.879 43.246,293.911 43.415,293.951 43.208 C 293.991 43.002,293.991 42.665,293.951 42.458 C 293.911 42.252,293.879 42.421,293.879 42.833 M294.334 42.276 C 294.333 42.540,295.461 44.526,295.787 44.833 C 295.945 44.982,295.916 44.881,295.716 44.583 C 295.531 44.308,295.145 43.633,294.857 43.083 C 294.569 42.533,294.334 42.170,294.334 42.276 M106.790 43.273 C 106.539 43.775,106.392 44.150,106.464 44.106 C 106.634 44.000,107.386 42.497,107.307 42.419 C 107.275 42.386,107.042 42.770,106.790 43.273 M321.706 42.926 C 321.501 43.239,321.333 43.551,321.333 43.620 C 321.333 43.688,321.528 43.458,321.765 43.109 C 322.002 42.760,322.170 42.448,322.138 42.416 C 322.106 42.383,321.912 42.613,321.706 42.926 M392.000 42.750 C 391.785 42.979,391.678 43.164,391.763 43.161 C 391.905 43.157,392.592 42.333,392.453 42.333 C 392.419 42.333,392.215 42.521,392.000 42.750 M280.500 42.740 C 280.500 42.893,281.477 43.334,281.783 43.319 C 281.983 43.309,281.940 43.261,281.657 43.175 C 281.422 43.104,281.066 42.958,280.865 42.850 C 280.664 42.743,280.500 42.693,280.500 42.740 M307.649 42.876 C 307.970 42.959,308.474 42.959,308.815 42.878 C 309.337 42.752,309.262 42.733,308.251 42.731 C 307.266 42.729,307.172 42.752,307.649 42.876 M183.693 43.417 C 183.692 43.508,183.793 43.846,183.917 44.167 C 184.040 44.487,184.144 44.637,184.146 44.500 C 184.149 44.362,184.049 44.025,183.923 43.750 C 183.797 43.475,183.693 43.325,183.693 43.417 M197.035 43.579 C 197.759 43.779,199.823 43.591,199.218 43.381 C 199.109 43.343,198.751 43.386,198.423 43.477 C 198.048 43.580,197.627 43.584,197.290 43.487 C 196.994 43.403,196.639 43.340,196.501 43.348 C 196.363 43.356,196.603 43.460,197.035 43.579 M221.417 43.500 C 221.600 43.579,221.900 43.641,222.083 43.638 C 222.351 43.634,222.335 43.607,222.000 43.500 C 221.430 43.317,220.992 43.317,221.417 43.500 M223.167 43.500 C 222.837 43.606,222.819 43.633,223.083 43.633 C 223.267 43.633,223.604 43.573,223.833 43.500 C 224.163 43.394,224.181 43.367,223.917 43.367 C 223.733 43.367,223.396 43.427,223.167 43.500 M262.750 43.500 C 262.933 43.579,263.196 43.643,263.333 43.643 C 263.491 43.643,263.460 43.590,263.250 43.500 C 263.067 43.421,262.804 43.357,262.667 43.357 C 262.509 43.357,262.540 43.410,262.750 43.500 M282.417 43.500 C 282.600 43.579,282.900 43.641,283.083 43.638 C 283.351 43.634,283.335 43.607,283.000 43.500 C 282.430 43.317,281.992 43.317,282.417 43.500 M283.917 43.500 L 283.583 43.643 283.917 43.652 C 284.100 43.657,284.362 43.589,284.500 43.500 C 284.831 43.286,284.415 43.286,283.917 43.500 M388.750 43.500 C 388.933 43.579,389.233 43.641,389.417 43.638 C 389.685 43.634,389.668 43.607,389.333 43.500 C 388.763 43.317,388.325 43.317,388.750 43.500 M390.250 43.500 C 390.040 43.590,390.009 43.643,390.167 43.643 C 390.304 43.643,390.567 43.579,390.750 43.500 C 390.960 43.410,390.991 43.357,390.833 43.357 C 390.696 43.357,390.433 43.421,390.250 43.500 M253.903 43.913 C 253.688 44.242,253.570 44.293,253.327 44.163 C 253.159 44.074,252.961 44.003,252.886 44.006 C 252.811 44.009,252.937 44.115,253.166 44.242 C 253.615 44.491,253.875 44.379,254.182 43.805 C 254.423 43.355,254.217 43.434,253.903 43.913 M345.500 43.720 C 345.500 43.901,346.641 45.667,346.758 45.667 C 346.865 45.667,346.854 45.647,346.070 44.456 C 345.756 43.980,345.500 43.649,345.500 43.720 M91.133 43.957 C 91.894 43.988,93.094 43.988,93.800 43.957 C 94.506 43.926,93.883 43.901,92.417 43.901 C 90.950 43.901,90.372 43.927,91.133 43.957 M126.877 43.953 C 127.131 43.991,127.506 43.990,127.711 43.951 C 127.916 43.911,127.708 43.880,127.250 43.881 C 126.792 43.882,126.624 43.915,126.877 43.953 M148.127 43.951 C 148.334 43.991,148.634 43.990,148.794 43.948 C 148.953 43.906,148.783 43.874,148.417 43.875 C 148.050 43.877,147.920 43.911,148.127 43.951 M251.458 43.951 C 251.665 43.991,252.002 43.991,252.208 43.951 C 252.415 43.911,252.246 43.879,251.833 43.879 C 251.421 43.879,251.252 43.911,251.458 43.951 M293.471 44.508 C 293.317 44.870,293.221 45.167,293.258 45.167 C 293.380 45.167,293.854 44.146,293.802 43.996 C 293.773 43.915,293.624 44.145,293.471 44.508 M320.897 44.375 C 320.511 45.127,318.101 47.567,317.127 48.192 C 316.683 48.477,316.357 48.746,316.402 48.791 C 316.681 49.070,320.521 45.432,321.064 44.375 C 321.217 44.077,321.304 43.833,321.259 43.833 C 321.213 43.833,321.050 44.077,320.897 44.375 M335.833 43.904 C 335.833 44.052,337.182 46.000,337.284 46.000 C 337.371 46.000,337.245 45.789,336.537 44.750 C 335.889 43.797,335.833 43.731,335.833 43.904 M377.625 43.951 C 377.831 43.991,378.169 43.991,378.375 43.951 C 378.581 43.911,378.412 43.879,378.000 43.879 C 377.587 43.879,377.419 43.911,377.625 43.951 M128.648 44.233 C 128.867 44.354,129.146 44.633,129.267 44.852 C 129.389 45.071,129.491 45.153,129.494 45.034 C 129.502 44.754,128.746 43.998,128.466 44.006 C 128.347 44.009,128.429 44.111,128.648 44.233 M150.022 44.417 C 151.301 45.987,151.112 49.476,149.707 50.238 C 149.456 50.375,149.334 50.490,149.436 50.493 C 151.086 50.553,151.648 45.694,150.139 44.413 C 149.751 44.084,149.750 44.084,150.022 44.417 M209.924 44.680 C 210.275 45.359,212.565 47.747,213.447 48.354 C 214.525 49.096,214.487 48.919,213.393 48.111 C 212.274 47.284,210.460 45.396,210.082 44.663 C 209.940 44.390,209.787 44.167,209.741 44.167 C 209.696 44.167,209.778 44.398,209.924 44.680 M105.692 45.042 C 105.003 46.038,103.796 47.221,102.647 48.027 C 101.152 49.076,101.293 49.127,102.833 48.094 C 104.048 47.280,106.738 44.333,106.266 44.333 C 106.220 44.333,105.962 44.652,105.692 45.042 M171.067 44.496 C 175.187 44.579,175.389 44.599,175.513 44.917 C 175.603 45.147,175.647 45.170,175.655 44.992 C 175.683 44.372,175.385 44.332,171.008 44.371 L 166.750 44.408 171.067 44.496 M157.828 44.843 C 157.728 45.031,157.670 45.259,157.700 45.350 C 157.730 45.440,157.841 45.286,157.946 45.007 C 158.165 44.427,158.100 44.336,157.828 44.843 M399.598 44.916 C 399.236 46.359,396.931 48.698,394.960 49.622 C 394.251 49.954,393.698 50.253,393.731 50.287 C 393.913 50.468,396.415 49.042,397.268 48.269 C 398.604 47.060,400.315 44.500,399.786 44.500 C 399.740 44.500,399.656 44.687,399.598 44.916 M208.360 45.421 C 208.333 46.105,208.119 46.527,207.350 47.417 C 206.960 47.868,206.977 47.862,207.531 47.353 C 208.271 46.673,208.547 46.063,208.455 45.311 C 208.389 44.772,208.386 44.777,208.360 45.421 M296.348 45.603 C 296.569 45.889,296.784 46.093,296.824 46.056 C 296.865 46.020,296.684 45.786,296.422 45.537 L 295.945 45.083 296.348 45.603 M165.958 46.322 C 165.555 47.180,165.591 47.386,166.009 46.607 C 166.197 46.256,166.328 45.909,166.300 45.836 C 166.273 45.762,166.119 45.981,165.958 46.322 M292.438 46.425 C 292.181 46.833,291.508 47.591,290.943 48.110 C 289.902 49.067,290.116 49.024,291.215 48.055 C 291.842 47.502,293.090 45.868,292.974 45.752 C 292.937 45.715,292.696 46.018,292.438 46.425 M347.373 46.609 C 347.672 47.048,348.010 47.597,348.123 47.828 C 348.318 48.225,348.324 48.227,348.232 47.859 C 348.128 47.443,347.256 46.075,346.989 45.910 C 346.902 45.856,347.074 46.170,347.373 46.609 M272.352 46.912 C 271.973 47.413,271.514 47.903,271.332 48.001 C 271.149 48.099,271.004 48.270,271.008 48.381 C 271.012 48.492,271.466 48.096,272.017 47.500 C 273.130 46.296,272.981 46.295,273.888 47.509 C 274.186 47.908,274.186 47.906,273.897 47.417 C 273.735 47.142,273.498 46.710,273.372 46.458 C 273.081 45.879,273.157 45.845,272.352 46.912 M297.030 46.332 C 297.124 46.624,299.811 48.833,300.071 48.833 C 300.169 48.833,299.874 48.568,299.416 48.244 C 298.958 47.919,298.216 47.301,297.766 46.869 C 297.317 46.437,296.985 46.195,297.030 46.332 M337.556 46.500 C 337.706 46.729,338.073 47.326,338.372 47.827 C 339.066 48.987,340.520 50.502,340.933 50.493 C 341.160 50.489,341.108 50.423,340.750 50.262 C 340.125 49.981,339.404 49.188,338.691 48.000 C 338.389 47.496,337.949 46.858,337.713 46.583 C 337.410 46.230,337.364 46.205,337.556 46.500 M176.174 46.523 C 176.170 46.582,176.315 46.957,176.496 47.357 C 176.678 47.756,176.825 47.971,176.823 47.833 C 176.819 47.589,176.187 46.313,176.174 46.523 M184.846 46.631 C 184.839 46.749,184.951 47.025,185.096 47.245 C 185.240 47.466,185.419 48.007,185.493 48.448 C 185.612 49.160,185.629 49.185,185.645 48.667 C 185.661 48.135,184.877 46.136,184.846 46.631 M232.083 47.300 C 231.625 47.736,231.025 48.263,230.750 48.472 C 230.475 48.681,230.400 48.780,230.583 48.691 C 231.097 48.445,232.270 47.469,232.667 46.958 C 233.169 46.314,233.041 46.389,232.083 47.300 M254.027 48.192 C 254.049 48.805,254.064 48.833,254.121 48.375 C 254.201 47.728,254.238 47.721,254.901 48.226 C 255.445 48.640,256.833 49.390,256.833 49.269 C 256.833 49.230,256.440 48.970,255.958 48.691 C 255.477 48.411,254.840 48.022,254.542 47.825 L 254.000 47.467 254.027 48.192 M380.333 48.242 C 380.333 48.918,380.140 49.379,379.604 49.981 L 379.250 50.379 379.603 50.195 C 380.023 49.977,380.500 49.040,380.500 48.433 C 380.500 47.894,380.579 47.894,381.287 48.433 C 381.599 48.672,381.890 48.832,381.933 48.789 C 381.975 48.747,381.821 48.589,381.589 48.439 C 381.357 48.289,380.979 48.046,380.750 47.897 L 380.333 47.628 380.333 48.242 M206.333 48.173 C 206.104 48.355,205.560 48.703,205.124 48.946 C 204.688 49.189,204.360 49.416,204.395 49.451 C 204.489 49.544,206.412 48.391,206.660 48.091 C 206.948 47.744,206.836 47.772,206.333 48.173 M274.827 48.321 C 275.144 48.603,275.476 48.833,275.563 48.833 C 275.651 48.833,275.691 48.812,275.653 48.785 C 275.615 48.758,275.283 48.528,274.917 48.273 L 274.250 47.809 274.827 48.321 M164.870 48.954 C 164.569 49.462,164.347 49.902,164.377 49.932 C 164.406 49.962,164.678 49.571,164.981 49.065 C 165.285 48.558,165.506 48.118,165.475 48.086 C 165.443 48.055,165.170 48.445,164.870 48.954 M176.844 48.351 C 176.820 48.952,178.289 50.511,178.864 50.493 C 178.985 50.490,178.857 50.388,178.580 50.268 C 178.063 50.042,177.281 49.146,177.008 48.466 C 176.909 48.219,176.851 48.178,176.844 48.351 M269.841 49.100 C 269.341 49.412,269.007 49.667,269.100 49.667 C 269.301 49.667,270.833 48.712,270.833 48.587 C 270.833 48.475,270.896 48.443,269.841 49.100 M100.506 49.272 C 100.097 49.489,99.872 49.666,100.006 49.666 C 100.140 49.665,100.550 49.480,100.917 49.254 C 101.756 48.738,101.493 48.749,100.506 49.272 M109.424 49.167 C 109.549 49.678,110.400 50.502,110.794 50.493 C 110.960 50.490,110.857 50.389,110.552 50.256 C 110.244 50.122,109.874 49.757,109.672 49.387 C 109.432 48.949,109.354 48.880,109.424 49.167 M129.332 49.421 C 129.191 49.847,128.973 50.100,128.607 50.259 C 128.319 50.384,128.182 50.490,128.303 50.493 C 128.872 50.510,129.931 49.209,129.610 48.887 C 129.568 48.845,129.443 49.086,129.332 49.421 M190.250 49.246 C 190.617 49.471,190.992 49.658,191.083 49.661 C 191.175 49.663,190.950 49.480,190.583 49.254 C 190.217 49.029,189.842 48.842,189.750 48.839 C 189.658 48.837,189.883 49.020,190.250 49.246 M229.250 49.263 C 228.883 49.482,228.658 49.662,228.750 49.663 C 228.842 49.664,229.217 49.480,229.583 49.254 C 229.950 49.029,230.175 48.848,230.083 48.854 C 229.992 48.860,229.617 49.044,229.250 49.263 M276.417 49.246 C 276.783 49.471,277.188 49.659,277.316 49.661 C 277.445 49.664,277.197 49.479,276.766 49.250 C 275.761 48.716,275.552 48.713,276.417 49.246 M315.173 49.272 C 314.764 49.489,314.539 49.666,314.673 49.666 C 314.807 49.665,315.217 49.480,315.583 49.254 C 316.422 48.738,316.160 48.749,315.173 49.272 M357.167 49.417 C 357.080 49.646,356.763 49.983,356.462 50.166 C 355.828 50.553,355.963 50.614,356.657 50.255 C 356.917 50.120,357.210 49.783,357.307 49.505 C 357.518 48.900,357.393 48.821,357.167 49.417 M81.673 49.304 C 81.663 49.632,82.593 50.501,82.946 50.493 C 83.139 50.489,83.057 50.403,82.721 50.257 C 82.429 50.130,82.076 49.814,81.936 49.555 C 81.795 49.296,81.677 49.183,81.673 49.304 M156.841 49.383 C 156.832 49.728,157.548 50.503,157.867 50.494 C 157.986 50.491,157.896 50.385,157.668 50.258 C 157.439 50.132,157.161 49.816,157.050 49.556 C 156.915 49.240,156.846 49.182,156.841 49.383 M253.671 49.656 C 253.557 49.931,253.317 50.202,253.136 50.260 C 252.956 50.317,252.841 50.396,252.880 50.436 C 252.920 50.475,253.078 50.459,253.232 50.400 C 253.516 50.291,254.086 49.364,253.951 49.229 C 253.911 49.189,253.785 49.381,253.671 49.656 M301.240 49.407 C 301.418 49.550,301.681 49.661,301.824 49.654 C 302.048 49.642,302.049 49.628,301.833 49.548 C 301.696 49.497,301.433 49.386,301.250 49.302 C 300.922 49.151,300.922 49.152,301.240 49.407 M185.294 49.631 C 185.239 49.842,184.956 50.108,184.640 50.245 C 184.334 50.378,184.210 50.490,184.366 50.493 C 184.761 50.503,185.564 49.775,185.470 49.492 C 185.418 49.338,185.359 49.385,185.294 49.631 M288.000 49.917 C 287.587 50.138,287.325 50.318,287.417 50.318 C 287.508 50.318,287.921 50.138,288.333 49.917 C 288.746 49.696,289.008 49.515,288.917 49.515 C 288.825 49.515,288.412 49.696,288.000 49.917 M332.331 49.955 C 331.949 50.354,331.945 50.372,332.282 50.193 C 332.656 49.994,332.915 49.693,332.806 49.584 C 332.772 49.550,332.559 49.717,332.331 49.955 M98.667 50.000 C 98.346 50.176,98.158 50.319,98.250 50.319 C 98.342 50.319,98.679 50.176,99.000 50.000 C 99.321 49.824,99.508 49.681,99.417 49.681 C 99.325 49.681,98.987 49.824,98.667 50.000 M192.000 50.000 C 192.321 50.176,192.658 50.319,192.750 50.319 C 192.842 50.319,192.654 50.176,192.333 50.000 C 192.012 49.824,191.675 49.681,191.583 49.681 C 191.492 49.681,191.679 49.824,192.000 50.000 M202.667 50.000 C 201.902 50.419,202.104 50.421,203.023 50.004 C 203.423 49.822,203.637 49.675,203.500 49.677 C 203.362 49.679,202.987 49.824,202.667 50.000 M227.756 49.866 C 227.577 49.971,227.127 50.151,226.756 50.267 C 226.386 50.383,226.233 50.482,226.417 50.487 C 226.749 50.496,228.567 49.700,228.250 49.685 C 228.158 49.680,227.936 49.762,227.756 49.866 M278.310 50.004 C 278.709 50.185,279.084 50.330,279.143 50.326 C 279.354 50.313,278.078 49.681,277.833 49.677 C 277.696 49.675,277.910 49.822,278.310 50.004 M348.000 49.814 C 348.000 49.925,347.756 50.122,347.458 50.252 C 347.160 50.381,347.040 50.490,347.190 50.493 C 347.544 50.502,348.288 49.900,348.125 49.737 C 348.056 49.668,348.000 49.702,348.000 49.814 M360.500 49.829 C 360.500 50.074,361.291 50.544,361.536 50.445 C 361.670 50.392,361.641 50.355,361.458 50.346 C 361.298 50.339,361.017 50.183,360.833 50.000 C 360.650 49.817,360.500 49.740,360.500 49.829 M384.643 50.004 C 385.043 50.185,385.418 50.330,385.477 50.326 C 385.687 50.313,384.411 49.681,384.167 49.677 C 384.029 49.675,384.244 49.822,384.643 50.004 M216.762 50.020 C 216.864 50.184,217.964 50.541,218.156 50.472 C 218.240 50.441,217.944 50.300,217.498 50.157 C 217.052 50.014,216.721 49.953,216.762 50.020 M234.810 50.157 C 235.027 50.346,235.283 50.500,235.380 50.500 C 235.585 50.500,235.575 50.492,234.917 50.106 L 234.417 49.814 234.810 50.157 M163.583 50.256 C 163.308 50.382,163.200 50.488,163.343 50.492 C 163.486 50.497,163.749 50.390,163.926 50.255 C 164.322 49.956,164.237 49.957,163.583 50.256 M258.926 50.159 C 259.018 50.251,259.354 50.367,259.672 50.415 C 260.259 50.505,260.148 50.434,259.254 50.149 C 258.920 50.043,258.813 50.046,258.926 50.159 M267.333 50.260 C 266.962 50.401,266.871 50.482,267.083 50.485 C 267.267 50.487,267.604 50.381,267.833 50.250 C 268.342 49.959,268.118 49.964,267.333 50.260 M86.719 50.625 C 88.628 50.652,91.703 50.652,93.553 50.625 C 95.403 50.598,93.842 50.576,90.083 50.576 C 86.325 50.576,84.811 50.598,86.719 50.625 M115.292 50.625 C 117.606 50.651,121.394 50.651,123.708 50.625 C 126.023 50.599,124.129 50.577,119.500 50.577 C 114.871 50.577,112.977 50.599,115.292 50.625 M136.458 50.625 C 138.773 50.651,142.560 50.651,144.875 50.625 C 147.190 50.599,145.296 50.577,140.667 50.577 C 136.037 50.577,134.144 50.599,136.458 50.625 M159.368 50.623 C 159.982 50.655,161.032 50.656,161.701 50.624 C 162.370 50.592,161.867 50.566,160.583 50.566 C 159.300 50.565,158.753 50.591,159.368 50.623 M180.368 50.623 C 180.982 50.655,182.032 50.656,182.701 50.624 C 183.370 50.592,182.867 50.566,181.583 50.566 C 180.300 50.565,179.753 50.591,180.368 50.623 M195.792 50.624 C 196.731 50.654,198.269 50.654,199.208 50.624 C 200.148 50.595,199.379 50.570,197.500 50.570 C 195.621 50.570,194.852 50.595,195.792 50.624 M220.458 50.624 C 221.398 50.654,222.935 50.654,223.875 50.624 C 224.815 50.595,224.046 50.570,222.167 50.570 C 220.287 50.570,219.519 50.595,220.458 50.624 M239.958 50.625 C 242.273 50.651,246.060 50.651,248.375 50.625 C 250.690 50.599,248.796 50.577,244.167 50.577 C 239.537 50.577,237.644 50.599,239.958 50.625 M262.042 50.624 C 262.844 50.655,264.156 50.655,264.958 50.624 C 265.760 50.594,265.104 50.569,263.500 50.569 C 261.896 50.569,261.240 50.594,262.042 50.624 M281.875 50.624 C 282.677 50.655,283.990 50.655,284.792 50.624 C 285.594 50.594,284.938 50.569,283.333 50.569 C 281.729 50.569,281.073 50.594,281.875 50.624 M306.634 50.624 C 307.578 50.654,309.078 50.654,309.967 50.624 C 310.856 50.594,310.083 50.570,308.250 50.570 C 306.417 50.570,305.689 50.595,306.634 50.624 M327.549 50.624 C 328.264 50.655,329.389 50.655,330.049 50.624 C 330.710 50.592,330.125 50.566,328.750 50.567 C 327.375 50.567,326.835 50.593,327.549 50.624 M342.792 50.624 C 343.548 50.655,344.785 50.655,345.542 50.624 C 346.298 50.593,345.679 50.568,344.167 50.568 C 342.654 50.568,342.035 50.593,342.792 50.624 M352.049 50.624 C 352.764 50.655,353.889 50.655,354.549 50.624 C 355.210 50.592,354.625 50.566,353.250 50.567 C 351.875 50.567,351.335 50.593,352.049 50.624 M365.958 50.625 C 368.273 50.651,372.060 50.651,374.375 50.625 C 376.690 50.599,374.796 50.577,370.167 50.577 C 365.537 50.577,363.644 50.599,365.958 50.625 M388.217 50.624 C 389.023 50.655,390.298 50.655,391.050 50.624 C 391.802 50.593,391.142 50.568,389.583 50.568 C 388.025 50.568,387.410 50.594,388.217 50.624 " stroke="none" fill="#ec0404" fill-rule="evenodd"></path><path id="path2" d="M1.049 0.438 C 0.696 0.612,0.441 0.907,0.299 1.309 C -0.009 2.178,-0.020 74.851,0.288 75.542 L 0.492 76.000 38.004 76.000 L 75.517 76.000 75.800 75.375 C 76.258 74.364,76.235 2.643,75.777 1.455 C 75.231 0.040,78.947 0.166,38.050 0.170 C 5.144 0.174,1.531 0.200,1.049 0.438 M68.821 19.744 C 69.528 20.109,69.500 19.398,69.500 36.938 L 69.500 53.348 69.091 53.758 L 68.682 54.167 37.833 54.167 L 6.985 54.167 6.576 53.758 L 6.167 53.348 6.167 36.870 L 6.167 20.391 6.542 20.050 C 6.748 19.863,7.029 19.668,7.167 19.618 C 7.830 19.375,68.348 19.499,68.821 19.744 " stroke="none" fill="#040404" fill-rule="evenodd"></path><path id="path3" d="M7.417 20.198 C 7.233 20.303,7.028 20.470,6.961 20.569 C 6.894 20.669,6.837 28.039,6.836 36.949 L 6.833 53.148 7.204 53.407 C 7.861 53.868,68.205 53.795,68.667 53.333 C 69.178 52.822,69.193 21.108,68.681 20.477 L 68.363 20.083 38.056 20.046 C 15.637 20.018,7.663 20.058,7.417 20.198 M67.500 20.982 L 67.917 21.098 67.959 36.830 C 67.993 49.306,67.958 52.590,67.793 52.695 C 67.258 53.035,8.022 52.852,7.839 52.511 C 7.654 52.166,7.587 22.065,7.769 21.384 C 7.823 21.183,7.991 20.985,8.142 20.945 C 8.606 20.822,67.055 20.859,67.500 20.982 " stroke="none" fill="#d40404" fill-rule="evenodd"></path><path id="path4" d="M7.167 19.618 C 7.029 19.668,6.748 19.863,6.542 20.050 L 6.167 20.391 6.167 36.870 L 6.167 53.348 6.576 53.758 L 6.985 54.167 37.833 54.167 L 68.682 54.167 69.091 53.758 L 69.500 53.348 69.500 36.938 C 69.500 19.398,69.528 20.109,68.821 19.744 C 68.348 19.499,7.830 19.375,7.167 19.618 M68.681 20.477 C 69.193 21.108,69.178 52.822,68.667 53.333 C 68.205 53.795,7.861 53.868,7.204 53.407 L 6.833 53.148 6.836 36.949 C 6.837 28.039,6.894 20.669,6.961 20.569 C 7.339 20.010,7.461 20.008,38.056 20.046 L 68.363 20.083 68.681 20.477 " stroke="none" fill="#384804" fill-rule="evenodd"></path></g></svg>